<svg width="current" height="current" viewBox="current" fill="none" xmlns="http://www.w3.org/2000/svg">
<path d="M0.841742 16.2931V15.0926C0.914498 14.074 1.1364 13.1464 1.50746 12.3097C1.87852 11.4657 2.3478 10.7564 2.91529 10.1816C3.49007 9.60681 4.15215 9.12298 4.90154 8.73009C5.65093 8.32993 6.43306 8.03891 7.24793 7.85702C8.07007 7.67513 8.91768 7.58418 9.79075 7.58418C10.2709 7.58418 10.7693 7.6242 11.2859 7.70423C11.8097 7.78426 12.3627 7.91159 12.9447 8.0862C13.5268 8.26082 14.0834 8.5191 14.6145 8.86106C15.1529 9.19573 15.5967 9.59225 15.9459 10.0506C16.6662 10.931 17.1864 11.855 17.5065 12.8226C17.834 13.783 17.9977 14.8525 17.9977 16.0312C18.0195 18.4903 17.4811 20.4693 16.3825 21.9681L15.9023 22.6229C15.4803 23.2049 14.8764 23.6924 14.0906 24.0853C13.3049 24.4709 12.5191 24.7365 11.7333 24.882C10.9476 25.0348 10.1545 25.1112 9.35422 25.1112C8.41566 25.1112 7.54986 25.0166 6.75682 24.8274C5.96378 24.6382 5.27987 24.3836 4.7051 24.0635C4.13032 23.7433 3.61739 23.3541 3.1663 22.8957C2.71521 22.4374 2.34416 21.9535 2.05313 21.4442C1.76938 20.9349 1.53293 20.382 1.34376 19.7854C1.16187 19.1888 1.03091 18.6067 0.950876 18.0392C0.87812 17.4718 0.841742 16.8897 0.841742 16.2931ZM9.52883 11.9714C9.23053 11.9714 8.96133 12.0405 8.72124 12.1787C8.48842 12.317 8.29561 12.4843 8.14283 12.6808C7.99731 12.8772 7.86999 13.1428 7.76086 13.4774C7.65172 13.8048 7.57169 14.1031 7.52076 14.3723C7.46983 14.6343 7.42982 14.9689 7.40071 15.3764C7.37161 15.7765 7.35342 16.0894 7.34615 16.3149C7.34615 16.5332 7.34615 16.8169 7.34615 17.1662C7.34615 17.5009 7.35706 17.821 7.37889 18.1266C7.40799 18.4249 7.46256 18.745 7.54259 19.0869C7.6299 19.4216 7.73903 19.7163 7.86999 19.9709C8.00823 20.2183 8.19376 20.4293 8.42658 20.6039C8.66667 20.7712 8.93951 20.8622 9.24508 20.8767C9.56521 20.8767 9.84896 20.8258 10.0963 20.724C10.3437 20.6148 10.5511 20.4802 10.7184 20.3202C10.8857 20.1528 11.0276 19.9309 11.144 19.6544C11.2604 19.378 11.3477 19.1124 11.4059 18.8578C11.4714 18.6031 11.5187 18.2866 11.5478 17.9083C11.5842 17.53 11.606 17.2062 11.6133 16.937C11.6206 16.6605 11.6242 16.3149 11.6242 15.9002C11.6242 15.5946 11.6133 15.3109 11.5915 15.049C11.5769 14.787 11.5478 14.496 11.5042 14.1759C11.4605 13.8558 11.3878 13.5757 11.2859 13.3356C11.184 13.0882 11.0604 12.859 10.9148 12.648C10.7693 12.4297 10.5765 12.2624 10.3364 12.146C10.1036 12.0296 9.83441 11.9714 9.52883 11.9714Z" fill="#111111"/>
<path d="M22.9541 24.7837C22.7504 24.7837 22.5139 24.7874 22.2447 24.7947C21.9755 24.8092 21.7682 24.8201 21.6226 24.8274C21.4771 24.8347 21.3098 24.831 21.1206 24.8165C20.9387 24.8092 20.8005 24.7837 20.7059 24.7401C20.6113 24.7037 20.5095 24.6455 20.4003 24.5655C20.2985 24.4854 20.2221 24.3763 20.1712 24.2381C20.1275 24.0998 20.0875 23.9289 20.0511 23.7251C20.022 23.5214 20.0075 23.2777 20.0075 22.9939C20.0075 21.4224 20.0366 19.2797 20.0948 16.5659C20.153 13.8449 20.1821 11.8477 20.1821 10.5745C20.1821 9.00293 20.2621 8.17351 20.4222 8.0862H24.482C25.2023 8.0862 25.737 8.12986 26.0862 8.21716C26.4427 8.29719 26.6792 8.42088 26.7956 8.58822C26.912 8.75556 26.9702 9.01021 26.9702 9.35216C26.9702 9.45402 26.963 9.6541 26.9484 9.9524C26.9339 10.2434 26.9266 10.4872 26.9266 10.6836V11.1856C26.9266 11.4184 26.9157 11.7677 26.8938 12.2333C26.872 12.6989 26.8611 13.0482 26.8611 13.281V13.4993C26.8756 13.5429 26.8829 13.6011 26.8829 13.6739H27.3195C27.4431 13.6739 27.6323 13.6775 27.887 13.6848C28.1416 13.6921 28.3308 13.6957 28.4545 13.6957C28.7891 13.6957 29.0365 13.6739 29.1966 13.6302V9.09024C29.1966 8.72646 29.2148 8.46817 29.2511 8.31538C29.2875 8.15532 29.3384 8.0571 29.4039 8.02072C29.4694 7.97707 29.5895 7.95524 29.7641 7.95524C29.8587 7.95524 30.0114 7.95888 30.2224 7.96615C30.4334 7.97343 30.5862 7.97707 30.6808 7.97707L31.4884 7.94433C32.0341 7.9225 32.5215 7.91159 32.9508 7.91159C34.9298 7.91159 35.9192 8.12986 35.9192 8.56639C35.9192 8.6828 35.9229 8.85014 35.9302 9.06841C35.9374 9.28668 35.9411 9.45402 35.9411 9.57043C35.9411 9.82507 35.9374 10.1961 35.9302 10.6836C35.9229 11.1711 35.9192 11.5421 35.9192 11.7968C35.9192 12.5534 35.9302 13.6812 35.952 15.1799C35.9738 16.6787 35.9847 17.8064 35.9847 18.5631C35.9847 18.6286 35.9811 18.7122 35.9738 18.8141C35.9665 18.9087 35.9629 18.9705 35.9629 18.9996V19.5235C35.9629 19.9891 35.9702 20.3383 35.9847 20.5712V20.8113C35.9702 20.8404 35.9629 20.884 35.9629 20.9422C35.9629 21.3278 35.9702 21.9135 35.9847 22.6993C35.9993 23.4851 36.0065 24.0707 36.0065 24.4563C35.9556 24.7183 35.2572 24.8492 33.9112 24.8492H29.3712L29.0438 24.3909V23.6706C29.0438 23.1831 29.0474 22.4628 29.0547 21.5097C29.062 20.5566 29.0656 19.8363 29.0656 19.3489C29.0656 19.1815 29.0438 19.0687 29.0001 19.0105C28.9637 18.9451 28.8837 18.9123 28.76 18.9123H28.3671C27.8724 18.9123 27.4213 18.9414 27.0139 18.9996C27.0139 19.6035 27.0066 20.513 26.9921 21.728C26.9775 22.9357 26.9702 23.8452 26.9702 24.4563C26.8829 24.6746 25.9735 24.7837 24.2419 24.7837H22.9541Z" fill="#111111"/>
<path d="M39.798 8.54457C39.798 8.29719 40.4164 8.17351 41.6532 8.17351H42.9629C44.0396 8.0862 44.8982 8.04255 45.5384 8.04255C46.1932 8.04255 46.5206 8.18806 46.5206 8.47909L45.7349 18.4212C45.7276 18.494 45.6876 18.5595 45.6148 18.6177C45.5421 18.6686 45.4402 18.7086 45.3092 18.7377C45.1856 18.7595 45.0546 18.7777 44.9164 18.7923C44.7781 18.7996 44.6217 18.8032 44.4471 18.8032C44.3525 18.8032 44.2106 18.7996 44.0215 18.7923C43.8323 18.785 43.6904 18.7814 43.5958 18.7814C43.3994 18.7814 43.112 18.7886 42.7337 18.8032C42.3553 18.8177 42.068 18.825 41.8715 18.825H40.933C40.8529 18.7959 40.7802 18.7523 40.7147 18.6941C40.6565 18.6359 40.6092 18.5631 40.5728 18.4758C40.5364 18.3812 40.5073 18.2939 40.4855 18.2139C40.4637 18.1266 40.4491 18.0174 40.4419 17.8865C40.4346 17.7555 40.4273 17.65 40.42 17.57C40.42 17.4827 40.42 17.3699 40.42 17.2317L39.798 8.54457ZM40.1363 24.5L40.0381 22.8412C40.0381 22.2664 40.0744 21.7535 40.1472 21.3024C40.2199 20.844 40.3145 20.6148 40.4309 20.6148H42.57C43.3266 20.6148 43.9305 20.6221 44.3816 20.6366C44.8327 20.6512 45.1746 20.6767 45.4075 20.713C45.6476 20.7421 45.8003 20.7785 45.8658 20.8222C45.9386 20.8658 45.975 20.9277 45.975 21.0077V24.4563C45.9604 24.5291 45.8586 24.5909 45.6694 24.6419C45.4875 24.6928 45.2401 24.7328 44.9273 24.7619C44.6217 24.791 44.2979 24.8129 43.956 24.8274C43.614 24.8492 43.2393 24.8601 42.8319 24.8601C42.4317 24.8601 42.0861 24.8601 41.7951 24.8601C41.5041 24.8601 41.2094 24.8565 40.9111 24.8492C40.6201 24.8492 40.4528 24.8492 40.4091 24.8492V24.6746C40.3873 24.6528 40.3364 24.6237 40.2563 24.5873C40.1836 24.5509 40.1436 24.5218 40.1363 24.5Z" fill="#111111"/>
</svg>
