<svg width="268" height="77" viewBox="0 0 268 77" fill="none" xmlns="http://www.w3.org/2000/svg">
<path d="M0.663852 31.3351V29.0753C0.80081 27.1579 1.21853 25.4117 1.91701 23.8367C2.61549 22.248 3.49886 20.9126 4.56713 19.8307C5.64909 18.7487 6.8954 17.8379 8.30606 17.0984C9.71672 16.3451 11.189 15.7973 12.7229 15.4549C14.2705 15.1125 15.8661 14.9413 17.5096 14.9413C18.4135 14.9413 19.3516 15.0166 20.324 15.1673C21.3101 15.3179 22.351 15.5576 23.4467 15.8863C24.5423 16.215 25.59 16.7012 26.5898 17.3449C27.6033 17.9749 28.4388 18.7213 29.0961 19.5841C30.452 21.2413 31.4313 22.9807 32.0339 24.8022C32.6502 26.61 32.9583 28.6233 32.9583 30.842C32.9994 35.4712 31.9859 39.1964 29.9179 42.0177L29.014 43.2503C28.2196 44.346 27.0829 45.2636 25.6037 46.0032C24.1246 46.729 22.6455 47.2289 21.1663 47.5028C19.6872 47.7904 18.1944 47.9343 16.6878 47.9343C14.9211 47.9343 13.2913 47.7562 11.7985 47.4001C10.3056 47.044 9.01824 46.5647 7.93627 45.9621C6.85431 45.3595 5.88877 44.6267 5.03963 43.7639C4.1905 42.9011 3.49202 41.9903 2.94419 41.0316C2.41006 40.0729 1.96494 39.032 1.60886 37.909C1.26646 36.7859 1.01994 35.6903 0.869288 34.622C0.732331 33.5538 0.663852 32.4581 0.663852 31.3351ZM17.0165 23.1998C16.455 23.1998 15.9483 23.3299 15.4963 23.5901C15.058 23.8503 14.6951 24.1653 14.4075 24.5351C14.1336 24.9049 13.8939 25.4048 13.6885 26.0348C13.483 26.6511 13.3324 27.2126 13.2365 27.7194C13.1406 28.2124 13.0653 28.8424 13.0105 29.6094C12.9558 30.3627 12.9215 30.9516 12.9078 31.3761C12.9078 31.787 12.9078 32.3211 12.9078 32.9785C12.9078 33.6085 12.9284 34.2112 12.9694 34.7864C13.0242 35.3479 13.1269 35.9505 13.2776 36.5942C13.4419 37.2242 13.6474 37.7789 13.8939 38.2582C14.1541 38.7239 14.5034 39.1211 14.9416 39.4498C15.3936 39.7648 15.9072 39.936 16.4824 39.9634C17.085 39.9634 17.6191 39.8675 18.0848 39.6757C18.5504 39.4703 18.9408 39.2169 19.2558 38.9156C19.5708 38.6006 19.8378 38.1829 20.057 37.6625C20.2761 37.142 20.4405 36.6421 20.55 36.1628C20.6733 35.6834 20.7623 35.0877 20.8171 34.3755C20.8856 33.6633 20.9267 33.0539 20.9404 32.5471C20.954 32.0267 20.9609 31.3761 20.9609 30.5955C20.9609 30.0203 20.9404 29.4861 20.8993 28.9931C20.8719 28.5 20.8171 27.9522 20.7349 27.3496C20.6527 26.747 20.5158 26.2197 20.324 25.7677C20.1323 25.3021 19.8995 24.8707 19.6256 24.4735C19.3516 24.0626 18.9887 23.7476 18.5368 23.5285C18.0985 23.3094 17.5917 23.1998 17.0165 23.1998Z" fill="#111111"/>
<path d="M40.5209 47.3179C40.1374 47.3179 39.6923 47.3248 39.1856 47.3385C38.6788 47.3659 38.2885 47.3864 38.0146 47.4001C37.7407 47.4138 37.4257 47.407 37.0696 47.3796C36.7272 47.3659 36.467 47.3179 36.2889 47.2358C36.1109 47.1673 35.9191 47.0577 35.7137 46.9071C35.522 46.7564 35.3782 46.551 35.2823 46.2908C35.2001 46.0305 35.1248 45.7087 35.0563 45.3252C35.0015 44.9417 34.9741 44.4829 34.9741 43.9488C34.9741 40.9905 35.0289 36.9571 35.1385 31.8486C35.2481 26.7264 35.3028 22.967 35.3028 20.5702C35.3028 17.612 35.4535 16.0506 35.7548 15.8863H43.397C44.7529 15.8863 45.7595 15.9685 46.4169 16.1328C47.088 16.2835 47.5331 16.5163 47.7522 16.8313C47.9714 17.1463 48.0809 17.6256 48.0809 18.2693C48.0809 18.4611 48.0672 18.8377 48.0398 19.3992C48.0125 19.9471 47.9988 20.4059 47.9988 20.7757V21.7207C47.9988 22.1589 47.9782 22.8163 47.9371 23.6928C47.896 24.5694 47.8755 25.2268 47.8755 25.665V26.0759C47.9029 26.1581 47.9166 26.2676 47.9166 26.4046H48.7383C48.9712 26.4046 49.3272 26.4114 49.8066 26.4251C50.2859 26.4388 50.642 26.4457 50.8749 26.4457C51.5049 26.4457 51.9705 26.4046 52.2718 26.3224V17.7763C52.2718 17.0915 52.3061 16.6053 52.3745 16.3177C52.443 16.0164 52.5389 15.8315 52.6621 15.763C52.7854 15.6809 53.0114 15.6398 53.3401 15.6398C53.5181 15.6398 53.8057 15.6466 54.2029 15.6603C54.6001 15.674 54.8877 15.6809 55.0657 15.6809L56.586 15.6192C57.6131 15.5781 58.5308 15.5576 59.3388 15.5576C63.064 15.5576 64.9267 15.9685 64.9267 16.7902C64.9267 17.0093 64.9335 17.3243 64.9472 17.7352C64.9609 18.1461 64.9677 18.4611 64.9677 18.6802C64.9677 19.1596 64.9609 19.858 64.9472 20.7757C64.9335 21.6933 64.9267 22.3918 64.9267 22.8711C64.9267 24.2955 64.9472 26.4183 64.9883 29.2396C65.0294 32.0609 65.0499 34.1838 65.0499 35.6081C65.0499 35.7314 65.0431 35.8889 65.0294 36.0806C65.0157 36.2587 65.0088 36.3751 65.0088 36.4299V37.4159C65.0088 38.2925 65.0225 38.9499 65.0499 39.3881V39.8401C65.0225 39.8949 65.0088 39.977 65.0088 40.0866C65.0088 40.8125 65.0225 41.915 65.0499 43.3941C65.0773 44.8733 65.091 45.9758 65.091 46.7016C64.9951 47.1947 63.6803 47.4412 61.1466 47.4412H52.6005L51.9842 46.5784V45.2225C51.9842 44.3049 51.9911 42.949 52.0048 41.1549C52.0185 39.3607 52.0253 38.0049 52.0253 37.0873C52.0253 36.7722 51.9842 36.56 51.902 36.4504C51.8336 36.3271 51.6829 36.2655 51.4501 36.2655H50.7105C49.7792 36.2655 48.9301 36.3203 48.1631 36.4299C48.1631 37.5666 48.1494 39.2786 48.122 41.5657C48.0946 43.8392 48.0809 45.5512 48.0809 46.7016C47.9166 47.1125 46.2046 47.3179 42.945 47.3179H40.5209Z" fill="#111111"/>
<path d="M69.889 16.7491C69.889 16.2835 71.0531 16.0506 73.3814 16.0506H75.8466C77.8736 15.8863 79.4897 15.8041 80.6949 15.8041C81.9275 15.8041 82.5438 16.078 82.5438 16.6259L81.0647 35.341C81.051 35.478 80.9756 35.6013 80.8387 35.7108C80.7017 35.8067 80.51 35.882 80.2635 35.9368C80.0306 35.9779 79.7841 36.0121 79.5239 36.0395C79.2637 36.0532 78.9692 36.0601 78.6405 36.0601C78.4625 36.0601 78.1954 36.0532 77.8393 36.0395C77.4832 36.0258 77.2162 36.019 77.0381 36.019C76.6683 36.019 76.1274 36.0327 75.4152 36.0601C74.703 36.0875 74.162 36.1012 73.7922 36.1012H72.0255C71.8748 36.0464 71.7379 35.9642 71.6146 35.8546C71.5051 35.7451 71.416 35.6081 71.3476 35.4438C71.2791 35.2657 71.2243 35.1014 71.1832 34.9507C71.1421 34.7864 71.1147 34.5809 71.101 34.3344C71.0873 34.0879 71.0736 33.8893 71.0599 33.7387C71.0599 33.5743 71.0599 33.362 71.0599 33.1018L69.889 16.7491ZM70.5258 46.7838L70.3409 43.6612C70.3409 42.5792 70.4094 41.6137 70.5464 40.7645C70.6833 39.9017 70.8614 39.4703 71.0805 39.4703H75.107C76.5314 39.4703 77.6681 39.484 78.5173 39.5114C79.3664 39.5388 80.0101 39.5867 80.4484 39.6552C80.9003 39.71 81.1879 39.7785 81.3112 39.8606C81.4481 39.9428 81.5166 40.0592 81.5166 40.2099V46.7016C81.4892 46.8386 81.2975 46.955 80.9414 47.0509C80.599 47.1467 80.1334 47.2221 79.5444 47.2769C78.9692 47.3316 78.3598 47.3727 77.7161 47.4001C77.0724 47.4412 76.367 47.4618 75.6001 47.4618C74.8468 47.4618 74.1963 47.4618 73.6484 47.4618C73.1006 47.4618 72.5459 47.4549 71.9844 47.4412C71.4366 47.4412 71.1216 47.4412 71.0394 47.4412V47.1125C70.9983 47.0714 70.9024 47.0166 70.7518 46.9482C70.6148 46.8797 70.5395 46.8249 70.5258 46.7838Z" fill="#111111"/>
<path d="M118.906 47.7933C118.674 49.8477 118.133 51.6692 117.283 53.2579C116.434 54.8329 115.345 56.1203 114.017 57.1201C112.688 58.1062 111.175 58.8526 109.477 59.3594C107.792 59.8661 105.95 60.1195 103.951 60.1195C102.088 60.1195 100.39 59.914 98.8558 59.5032C97.3219 59.106 96.0277 58.5719 94.9731 57.9008C93.9185 57.2297 92.9872 56.4148 92.1792 55.4561C91.3711 54.4837 90.7274 53.4908 90.2481 52.4773C89.7687 51.4501 89.3784 50.3339 89.0771 49.1287C88.7895 47.9098 88.5909 46.7799 88.4813 45.739C88.3855 44.6844 88.3375 43.5888 88.3375 42.452V40.6442C88.4745 38.6446 88.9401 36.8505 89.7345 35.2618C90.5288 33.6594 91.4944 32.372 92.6311 31.3996C93.7679 30.4135 95.069 29.5986 96.5344 28.9549C97.9999 28.2975 99.4242 27.8455 100.807 27.599C102.191 27.3388 103.567 27.2087 104.937 27.2087C107.142 27.2087 109.087 27.4758 110.771 28.0099C112.469 28.5303 113.853 29.2699 114.921 30.2286C115.989 31.1873 116.825 32.2898 117.427 33.5361C118.03 34.7687 118.413 36.152 118.578 37.6859V39.6581C118.578 40.0963 117.071 40.3155 114.058 40.3155C113.346 40.3155 112.353 40.3018 111.079 40.2744C109.819 40.247 108.991 40.2333 108.593 40.2333C108.525 40.2333 108.422 40.2402 108.285 40.2538C108.148 40.2675 108.046 40.2744 107.977 40.2744C107.621 40.2744 107.347 40.1306 107.155 39.843C106.977 39.5417 106.854 39.1787 106.786 38.7542C106.731 38.3296 106.656 37.905 106.56 37.4805C106.477 37.0559 106.293 36.6998 106.005 36.4122C105.731 36.1109 105.348 35.9602 104.855 35.9602C104.362 35.9602 103.93 36.0424 103.56 36.2068C103.191 36.3711 102.896 36.6313 102.677 36.9874C102.458 37.3298 102.273 37.6791 102.122 38.0351C101.985 38.3912 101.883 38.8569 101.814 39.4321C101.759 39.9936 101.718 40.473 101.691 40.8702C101.677 41.2536 101.663 41.7741 101.65 42.4315C101.636 43.0752 101.622 43.5477 101.609 43.849C101.609 44.0133 101.595 44.3146 101.568 44.7529C101.54 45.1912 101.526 45.5472 101.526 45.8212C101.526 49.2314 102.43 50.9844 104.238 51.0803C104.731 51.0803 105.135 50.9023 105.45 50.5462C105.765 50.1901 105.978 49.7929 106.087 49.3546C106.21 48.9164 106.347 48.4576 106.498 47.9782C106.649 47.4852 106.813 47.1496 106.991 46.9716H118.167C118.619 47.0127 118.865 47.2866 118.906 47.7933ZM147.832 31.3996V56.6682C147.832 56.9558 147.818 57.1886 147.791 57.3666C147.777 57.531 147.722 57.6885 147.626 57.8391C147.53 57.9898 147.393 58.0651 147.215 58.0651H136.738V57.6132C136.711 57.5858 136.601 57.5241 136.409 57.4283C136.231 57.3324 136.122 57.2434 136.081 57.1612V48.8616C136.081 48.5603 136.053 48.3891 135.999 48.348C135.958 48.3069 135.766 48.2864 135.423 48.2864H134.026C133.698 48.2864 133.314 48.3138 132.876 48.3686V57.2434C132.821 57.4899 132.712 57.6474 132.547 57.7159C132.397 57.7844 132.164 57.8186 131.849 57.8186H130.904C130.26 57.8186 129.247 57.8323 127.863 57.8597C126.494 57.8871 125.453 57.9008 124.741 57.9008H122.029C121.44 57.9008 121.146 57.5721 121.146 56.9147L121.269 31.0298C121.269 30.9613 121.289 30.9065 121.33 30.8654C121.372 30.8107 121.454 30.7422 121.577 30.66C121.7 30.5641 121.769 30.5094 121.782 30.4957H132.835V39.3294H136.409V30.2902H146.887C147.215 30.2902 147.455 30.3655 147.606 30.5162C147.756 30.6669 147.832 30.9613 147.832 31.3996ZM161.308 53.7099C161.212 54.0249 161.117 54.4426 161.021 54.963C160.938 55.4698 160.856 55.8738 160.774 56.1751C160.706 56.4627 160.582 56.7709 160.404 57.0996C160.226 57.4146 159.952 57.6474 159.583 57.7981C159.227 57.9487 158.761 58.024 158.186 58.024H149.311V57.3256C150.037 55.1479 151.091 51.8062 152.475 47.3003C153.871 42.7944 154.953 39.3842 155.72 37.0696V37.1107C156.186 35.7822 156.871 33.7005 157.775 30.8654C157.788 30.838 157.809 30.8038 157.836 30.7627C157.96 30.5573 158.076 30.3998 158.186 30.2902L169.279 30.3724C171.169 30.3724 172.21 30.5367 172.402 30.8654V31.3996C172.429 31.5228 172.58 31.8378 172.854 32.3446C174.182 36.4122 175.155 39.3705 175.771 41.2194V41.4659C175.826 41.8631 175.949 42.3151 176.141 42.8218C176.332 43.3285 176.558 43.8764 176.819 44.4653C177.093 45.0405 177.284 45.4925 177.394 45.8212L178.216 48.7794C178.695 50.3681 179.4 52.491 180.332 55.1479V55.1068V55.5177C180.373 55.7095 180.475 55.9697 180.64 56.2984C180.804 56.6271 180.907 56.8599 180.948 56.9969C180.948 57.3803 180.866 57.6269 180.701 57.7364C180.551 57.846 180.249 57.9008 179.797 57.9008H170.265C170.032 57.8734 169.882 57.8528 169.813 57.8391C169.745 57.8254 169.635 57.7981 169.485 57.757C169.348 57.7159 169.245 57.6611 169.176 57.5926C169.122 57.5241 169.087 57.4351 169.074 57.3256L168.293 54.2029C168.238 53.9427 168.184 53.7989 168.129 53.7715C168.074 53.7304 167.91 53.7099 167.636 53.7099H161.308ZM162.294 46.3964V46.4785V46.3964ZM166.814 43.9311C166.732 43.5477 166.609 42.9314 166.444 42.0822C166.294 41.2194 166.143 40.473 165.992 39.843C165.842 39.1993 165.677 38.6035 165.499 38.0557V37.0696C165.39 36.782 165.198 36.5766 164.924 36.4533V36.4944C164.595 36.5629 164.267 37.4805 163.938 39.2472V40.2333C163.91 40.3292 163.849 40.4182 163.753 40.5004C163.657 40.5825 163.609 40.6305 163.609 40.6442C163.157 42.6438 162.787 44.2598 162.5 45.4925C162.5 45.6294 162.466 45.8691 162.397 46.2115C162.329 46.5539 162.294 46.7525 162.294 46.8072H167.389C167.389 46.4512 167.266 45.8075 167.019 44.8762V44.4242C167.006 44.3831 166.965 44.3078 166.896 44.1982C166.841 44.075 166.814 43.9859 166.814 43.9311ZM182.591 57.9829C182.55 57.9282 182.482 57.8665 182.386 57.7981C182.304 57.7296 182.208 57.5995 182.098 57.4077V48.5329C182.098 47.3688 182.146 45.5815 182.242 43.171C182.338 40.7606 182.386 38.9322 182.386 37.6859C182.386 37.412 182.359 36.8299 182.304 35.9397C182.249 35.0495 182.222 34.3442 182.222 33.8237C182.222 31.8926 182.454 30.7148 182.92 30.2902C185.769 30.345 187.892 30.3724 189.289 30.3724H191.261C191.726 30.3724 192.083 30.3861 192.329 30.4135C192.356 30.3861 192.425 30.3724 192.534 30.3724C192.562 30.3724 192.678 30.3861 192.884 30.4135C193.103 30.4409 193.274 30.4546 193.397 30.4546C193.74 30.4957 194.027 30.7833 194.26 31.3174V31.605C194.26 31.7557 194.253 31.9748 194.24 32.2624C194.226 32.55 194.219 32.7691 194.219 32.9198V33.8237C194.205 33.8922 194.116 34.0155 193.952 34.1935C193.801 34.3578 193.726 34.4948 193.726 34.6044V49.6012H202.436C202.656 49.6012 202.82 49.608 202.93 49.6217C203.039 49.6354 203.149 49.697 203.258 49.8066C203.368 49.9162 203.423 50.0805 203.423 50.2997V57.1612C203.313 57.709 202.656 57.9829 201.45 57.9829H182.591ZM205.723 57.9829C205.682 57.9282 205.614 57.8665 205.518 57.7981C205.436 57.7296 205.34 57.5995 205.23 57.4077V48.5329C205.23 47.3688 205.278 45.5815 205.374 43.171C205.47 40.7606 205.518 38.9322 205.518 37.6859C205.518 37.412 205.491 36.8299 205.436 35.9397C205.381 35.0495 205.354 34.3442 205.354 33.8237C205.354 31.8926 205.586 30.7148 206.052 30.2902C208.901 30.345 211.024 30.3724 212.421 30.3724H214.393C214.858 30.3724 215.215 30.3861 215.461 30.4135C215.488 30.3861 215.557 30.3724 215.667 30.3724C215.694 30.3724 215.81 30.3861 216.016 30.4135C216.235 30.4409 216.406 30.4546 216.529 30.4546C216.872 30.4957 217.159 30.7833 217.392 31.3174V31.605C217.392 31.7557 217.385 31.9748 217.372 32.2624C217.358 32.55 217.351 32.7691 217.351 32.9198V33.8237C217.337 33.8922 217.248 34.0155 217.084 34.1935C216.933 34.3578 216.858 34.4948 216.858 34.6044V49.6012H225.569C225.788 49.6012 225.952 49.608 226.062 49.6217C226.171 49.6354 226.281 49.697 226.39 49.8066C226.5 49.9162 226.555 50.0805 226.555 50.2997V57.1612C226.445 57.709 225.788 57.9829 224.582 57.9829H205.723ZM228.404 32.2624C228.404 31.4407 228.438 30.9613 228.506 30.8244C228.63 30.6326 228.828 30.5367 229.102 30.5367H229.595C229.814 30.5367 229.965 30.5504 230.047 30.5778H231.115C232.499 30.5778 234.587 30.5436 237.381 30.4751C240.189 30.4066 242.291 30.3724 243.688 30.3724H249.153C249.509 30.4135 249.687 30.5915 249.687 30.9065V37.7681C249.673 37.8503 249.646 37.9256 249.605 37.9941C249.577 38.0488 249.55 38.0899 249.522 38.1173C249.509 38.131 249.447 38.1789 249.337 38.2611C249.228 38.3296 249.153 38.3844 249.111 38.4255H239.579V40.9729H240.483C241.278 40.9729 242.49 40.9455 244.119 40.8907C245.749 40.8359 247.002 40.8085 247.879 40.8085C248.262 40.8085 248.523 40.8839 248.66 41.0345C248.796 41.1852 248.865 41.3974 248.865 41.6714C248.865 41.7398 248.851 41.8562 248.824 42.0206C248.796 42.1849 248.783 42.3014 248.783 42.3698V43.1505C248.783 43.2053 248.79 43.3217 248.803 43.4997C248.817 43.6641 248.824 43.8079 248.824 43.9311V44.5064C248.824 44.8077 248.838 45.109 248.865 45.4103C248.892 45.7116 248.906 45.9718 248.906 46.1909V46.7251C248.838 46.8894 248.783 46.999 248.742 47.0538C248.701 47.1086 248.632 47.1359 248.536 47.1359V47.0949C248.029 47.0949 247.153 47.1291 245.907 47.1976C244.674 47.2661 243.688 47.3003 242.948 47.3003H239.661V49.9299C239.771 49.9299 239.935 49.9367 240.154 49.9504C240.374 49.9641 240.538 49.971 240.648 49.971C241.264 49.971 242.175 49.9504 243.38 49.9093C244.585 49.8682 245.455 49.8477 245.989 49.8477H248.618C249.331 49.8477 249.783 49.9299 249.974 50.0942C250.043 50.1764 250.098 50.2586 250.139 50.3407V56.9147C250.139 57.2023 250.084 57.4214 249.974 57.5721C249.865 57.7227 249.659 57.8049 249.358 57.8186H229.02L228.404 57.2845V32.2624ZM252.481 28.77C252.481 28.3043 253.645 28.0715 255.973 28.0715H258.438C260.465 27.9072 262.081 27.825 263.287 27.825C264.519 27.825 265.135 28.0989 265.135 28.6467L263.656 47.3619C263.643 47.4989 263.567 47.6221 263.43 47.7317C263.293 47.8276 263.102 47.9029 262.855 47.9577C262.622 47.9988 262.376 48.033 262.116 48.0604C261.855 48.0741 261.561 48.0809 261.232 48.0809C261.054 48.0809 260.787 48.0741 260.431 48.0604C260.075 48.0467 259.808 48.0399 259.63 48.0399C259.26 48.0399 258.719 48.0536 258.007 48.0809C257.295 48.1083 256.754 48.122 256.384 48.122H254.617C254.466 48.0673 254.33 47.9851 254.206 47.8755C254.097 47.7659 254.008 47.629 253.939 47.4646C253.871 47.2866 253.816 47.1222 253.775 46.9716C253.734 46.8072 253.706 46.6018 253.693 46.3553C253.679 46.1088 253.665 45.9102 253.652 45.7595C253.652 45.5952 253.652 45.3829 253.652 45.1227L252.481 28.77ZM253.117 58.8047L252.933 55.6821C252.933 54.6001 253.001 53.6346 253.138 52.7854C253.275 51.9226 253.453 51.4912 253.672 51.4912H257.699C259.123 51.4912 260.26 51.5049 261.109 51.5323C261.958 51.5597 262.602 51.6076 263.04 51.6761C263.492 51.7309 263.78 51.7993 263.903 51.8815C264.04 51.9637 264.108 52.0801 264.108 52.2307V58.7225C264.081 58.8595 263.889 58.9759 263.533 59.0718C263.191 59.1676 262.725 59.243 262.136 59.2977C261.561 59.3525 260.951 59.3936 260.308 59.421C259.664 59.4621 258.959 59.4826 258.192 59.4826C257.438 59.4826 256.788 59.4826 256.24 59.4826C255.692 59.4826 255.138 59.4758 254.576 59.4621C254.028 59.4621 253.713 59.4621 253.631 59.4621V59.1334C253.59 59.0923 253.494 59.0375 253.343 58.969C253.206 58.9006 253.131 58.8458 253.117 58.8047Z" fill="#111111"/>
</svg>
