<?xml version="1.0" encoding="utf-8"?>
<!-- Generator: Adobe Illustrator 27.7.0, SVG Export Plug-In . SVG Version: 6.00 Build 0)  -->
<svg version="1.1" xmlns="http://www.w3.org/2000/svg" xmlns:xlink="http://www.w3.org/1999/xlink" x="0px" y="0px"
	 viewBox="0 0 1366 768" style="enable-background:new 0 0 1366 768;" xml:space="preserve">
<style type="text/css">
	.st0{fill:#FF9800;}
	.st1{fill:#0098CB;}
	.st2{fill:#339898;}
	.st3{fill:#FF3333;}
	.st4{fill:#FFCCCC;}
	.st5{fill:#006699;}
	.st6{fill:#0098CB;stroke:#0098CB;stroke-miterlimit:10;}
	.st7{fill:#33CCCC;}
	.st8{fill:#00FF99;}
	.st9{fill:#339999;stroke:#339999;stroke-miterlimit:10;}
	.st10{fill:none;stroke:#00FF99;stroke-miterlimit:10;}
	.st11{opacity:0.5;}
	.st12{fill:#FFFFFF;}
	.st13{fill:#FF9900;}
	.st14{fill:#333333;}
	.st15{fill:#CCCCCC;}
	.st16{fill:#FF9900;stroke:#FF9900;stroke-miterlimit:10;}
	.st17{fill:#CC6600;}
	.st18{fill:#FFFFFF;stroke:#FFFFFF;stroke-miterlimit:10;}
</style>
<g id="Layer_3">
	<g>
		<rect x="1437.6" y="182.5" class="st0" width="93.02" height="85"/>
		<path class="st0" d="M1530.12,183v84h-92.02v-84H1530.12 M1531.12,182h-94.02v86h94.02V182L1531.12,182z"/>
	</g>
	<g>
		<rect x="1437.38" y="298.5" class="st1" width="93.02" height="85"/>
		<path class="st1" d="M1529.9,299v84h-92.02v-84H1529.9 M1530.9,298h-94.02v86h94.02V298L1530.9,298z"/>
	</g>
	<g>
		<rect x="1437.38" y="414.5" class="st2" width="93.02" height="85"/>
		<path class="st2" d="M1529.9,415v84h-92.02v-84H1529.9 M1530.9,414h-94.02v86h94.02V414L1530.9,414z"/>
	</g>
	<g>
		<rect x="1437.38" y="522.5" class="st3" width="93.02" height="85"/>
		<path class="st3" d="M1529.9,523v84h-92.02v-84H1529.9 M1530.9,522h-94.02v86h94.02V522L1530.9,522z"/>
	</g>
</g>
<g id="Layer_9">
	<g>
		<rect x="-15" y="-10" class="st4" width="1396" height="798"/>
	</g>
</g>
<g id="Layer_8">
	<g>
		<rect x="1183.19" y="275.61" class="st5" width="95.85" height="393.05"/>
	</g>
	<g>
		<rect x="882.07" y="557" class="st5" width="95.85" height="158.77"/>
	</g>
	<g>
		<rect x="1098.35" y="586.41" class="st1" width="94.85" height="140.09"/>
		<g>
			<path class="st1" d="M1192.7,586.91V726h-93.85V586.91H1192.7 M1193.7,585.91h-95.85V727h95.85V585.91L1193.7,585.91z"/>
		</g>
	</g>
	<g>
		<rect x="1270.3" y="192.5" class="st1" width="94.85" height="458.24"/>
		<g>
			<path class="st1" d="M1364.65,193v457.24h-93.85V193H1364.65 M1365.65,192h-95.85v459.24h95.85V192L1365.65,192z"/>
		</g>
	</g>
	<g>
		<g>
			<rect x="112.55" y="276" class="st5" width="18.93" height="196.53"/>
		</g>
		<g>
			<rect x="95.2" y="254.5" class="st1" width="53.62" height="26.93"/>
			<g>
				<path class="st1" d="M148.32,255v25.93H95.7V255H148.32 M149.32,254H94.7v27.93h54.62V254L149.32,254z"/>
			</g>
		</g>
		<g>
			<rect x="104.36" y="235.54" class="st1" width="35.31" height="26.93"/>
			<g>
				<path class="st1" d="M139.17,236.04v25.93h-34.31v-25.93H139.17 M140.17,235.04h-36.31v27.93h36.31V235.04L140.17,235.04z"/>
			</g>
		</g>
		<g>
			<rect x="117.01" y="182.5" class="st1" width="10" height="65.96"/>
			<g>
				<path class="st1" d="M126.51,183v64.96h-9V183H126.51 M127.51,182h-11v66.96h11V182L127.51,182z"/>
			</g>
		</g>
		<g>
			<rect x="120.01" y="120.43" class="st1" width="4" height="65.96"/>
			<g>
				<path class="st1" d="M123.51,120.93v64.96h-3v-64.96H123.51 M124.51,119.93h-5v66.96h5V119.93L124.51,119.93z"/>
			</g>
		</g>
	</g>
	<g>
		<rect x="148.81" y="388.23" class="st5" width="120.19" height="141.09"/>
	</g>
	<g>
		<rect x="342.07" y="255" class="st5" width="95.85" height="407.55"/>
	</g>
	<g>
		<polygon class="st5" points="589.93,744.53 494.07,744.53 494,439 589.93,351.47 		"/>
	</g>
	<g>
		<rect x="722.07" y="395" class="st5" width="80.93" height="301.53"/>
	</g>
	<g>
		<g>
			<polygon class="st5" points="894.34,605 906,388.45 854,334 			"/>
		</g>
		<g>
			<polygon class="st1" points="797.57,669.05 797.57,334.5 853.59,334.5 917.4,669.05 			"/>
			<g>
				<path class="st1" d="M853.17,335l63.62,333.55H798.07V335H853.17 M854,334h-56.93v335.55H918L854,334L854,334z"/>
			</g>
		</g>
	</g>
	<g>
		<polygon class="st1" points="416.57,747.03 416.57,355.59 511.5,440.22 511.43,747.03 		"/>
		<g>
			<path class="st1" d="M417.07,356.7L511,440.45l-0.07,306.08h-93.85V356.7 M416.07,354.47v393.05h95.85L512,440L416.07,354.47
				L416.07,354.47z"/>
		</g>
	</g>
	<g>
		<g>
			<rect x="672" y="83" class="st5" width="29.93" height="551"/>
		</g>
		<path class="st6" d="M635.55,645.5c0,0,4.07-424.09,45.89-606.5l-6.38,619.67L635.55,645.5z"/>
		<path class="st6" d="M742.45,645.5c0,0-4.07-424.09-45.89-606.5l6.38,619.67L742.45,645.5z"/>
	</g>
	<g>
		<rect x="527.04" y="509.73" class="st1" width="119.93" height="334.55"/>
		<g>
			<path class="st1" d="M646.46,510.23v333.55H527.54V510.23H646.46 M647.46,509.23H526.54v335.55h120.93V509.23L647.46,509.23z"/>
		</g>
	</g>
	<g>
		<rect x="253.04" y="318.73" class="st1" width="119.93" height="334.55"/>
		<g>
			<path class="st1" d="M372.46,319.23v333.55H253.54V319.23H372.46 M373.46,318.23H252.54v335.55h120.93V318.23L373.46,318.23z"/>
		</g>
	</g>
	<g>
		<polygon class="st1" points="937.57,699.05 937.57,521.18 953.87,501.12 953.87,459.16 973.42,431.39 973.42,397.86 
			989.72,369.43 989.72,323.83 1010.36,277.65 1010.36,206.5 1113.5,206.5 1113.5,687.5 1075.23,687.5 1076.45,693.5 1056.77,693.5 
			1056.85,693.77 1038.53,693.77 1040.49,699.05 		"/>
		<g>
			<path class="st1" d="M1113,207v480h-37.16h-1.22l0.24,1.2l0.97,4.8h-18.41h-1.31l0.08,0.27h-16.94h-1.44l0.5,1.35l1.46,3.93
				h-101.7V521.35l16.07-19.79l0.22-0.28v-0.36v-41.62l19.37-27.51l0.18-0.26v-0.32v-33.24l16.16-28.2l0.13-0.23v-0.27v-45.35
				l20.55-45.99l0.09-0.19v-0.21V207H1113 M1114,206h-104.14v71.54l-20.64,46.18v45.57l-16.3,28.43v33.5L953.37,459v41.94
				L937.07,521v178.55h104.14l-1.96-5.27h18.25l-0.08-0.27h19.63l-1.22-6H1114V206L1114,206z"/>
		</g>
	</g>
</g>
<g id="Layer_6">
	<path class="st7" d="M1398.5,795.5c0,0,43-146.85-71.5-185.44c-74.89-25.24-132.69,32.7-197,53.54c-26.3,8.52-92.27-19.13-107-1.88
		c-12.93,15.14-74.62,28.91-157,15.28c-143.28-23.7-68.8-68.65-249-53.27C356,646,371.52,595.93,349,549
		c-36-75-111.65-107.1-123-113c-25-13-53.75-26.79-102.17-21.54c-45.03,4.88-85.06,30.92-108.75,69.53L-15,533l-6.67,262.16
		L1398.5,795.5z"/>
</g>
<g id="Layer_5">
	<g>
		<path class="st8" d="M597.72,590.85c8.65-7.57,17.16-14.17,25.03-19.58l0.58-13.37c-9.36,4.41-19.28,10.06-29.06,17.25l3.09,15.64
			L597.72,590.85z"/>
		<path class="st8" d="M565.35,621.74c9.46-10.89,19.5-20.82,29.38-29.47l-0.37-0.07l-3.09-15.64
			c-9.98,7.33-19.81,16.28-28.77,27.18l2.3,17.97L565.35,621.74z"/>
		<path class="st8" d="M628.11,571.94l25.85-2.11c11.7-12.16,20.53-21.64,23.8-25.16C670.12,547.41,650.7,556.39,628.11,571.94z"/>
		<path class="st8" d="M675.2,543.13c0.9-0.97,1.38-1.49,1.38-1.49s-22.79,2.35-50.45,15.39l-0.58,13.37
			C648.14,554.85,667.55,545.88,675.2,543.13z"/>
		<path class="st8" d="M568.23,625.88l27.35,1.55c8.98-8.44,18.2-17.45,27-26.26l-24.98-4.75
			C587.73,605.06,577.69,614.99,568.23,625.88z"/>
		<path class="st8" d="M560.62,626.44l-2.3-17.97c-8.57,10.42-16.33,22.62-22.65,36.91c-6.15,13.91-6.99,20.92-4.09,22.88
			c8.24-14.95,18.51-29.04,29.59-41.8L560.62,626.44z"/>
		<path class="st8" d="M625.28,574.66c-7.87,5.42-16.38,12.01-25.03,19.58l24.98,4.75c9.35-9.35,18.24-18.47,25.9-26.44
			L625.28,574.66z"/>
		<path class="st8" d="M533.2,670.72c6.35,4.29,30.66-15.55,56.94-40.25l-27.35-1.55C551.71,641.68,541.45,655.77,533.2,670.72z"/>
		<path class="st8" d="M583.96,657.96c5.7-2.32,11.15-4.17,16.07-5.53l2.69-6.65c-5.49,0.6-11.47,1.72-17.67,3.65l-1.26,8.43
			L583.96,657.96z"/>
		<path class="st8" d="M562.18,667.92c6.7-3.85,13.52-7.12,20.02-9.77l-0.17-0.1l1.26-8.43c-6.32,1.97-12.86,4.77-19.31,8.72
			l-2.07,9.47L562.18,667.92z"/>
		<path class="st8" d="M602.6,653.7l13.34,3.43c8.05-4.11,14.18-7.36,16.45-8.56C628.06,648.62,616.72,649.78,602.6,653.7z"/>
		<path class="st8" d="M631.38,647.34c0.62-0.33,0.96-0.51,0.96-0.51s-11.85-2.78-28.06-1.01l-2.69,6.65
			C615.71,648.55,627.05,647.4,631.38,647.34z"/>
		<path class="st8" d="M562.39,670.12l13.44,5.54c6.02-2.7,12.26-5.65,18.26-8.56l-11.67-6.74
			C575.91,663,569.09,666.27,562.39,670.12z"/>
		<path class="st8" d="M558.96,669.47l2.07-9.47c-6.17,3.77-12.25,8.58-17.99,14.7c-5.58,5.96-7.26,9.35-6.16,10.84
			c6.82-6.11,14.5-11.44,22.34-15.96L558.96,669.47z"/>
		<path class="st8" d="M600.68,654.58c-4.92,1.37-10.37,3.22-16.07,5.53l11.67,6.74c6.37-3.1,12.46-6.15,17.74-8.85L600.68,654.58z"
			/>
		<path class="st8" d="M537.26,687.06c2.42,3.27,18.17-2.52,35.78-10.42l-13.44-5.54C551.76,675.61,544.08,680.94,537.26,687.06z"/>
		<path class="st8" d="M521.4,612.84c1.53-7.66,3.32-14.67,5.2-20.73l-4.07-8.46c-2.89,5.95-5.63,12.86-7.82,20.67l6.5,8.59
			L521.4,612.84z"/>
		<path class="st8" d="M516.48,643.08c0.83-9.99,2.25-19.58,4-28.33l-0.19,0.08l-6.5-8.59c-2.23,7.97-3.86,16.89-4.46,26.71
			l6.89,10.3L516.48,643.08z"/>
		<path class="st8" d="M529.29,590.68l11.25-10.22c1.45-11.54,2.45-20.45,2.82-23.74C540.72,561.05,534.67,573.28,529.29,590.68z"/>
		<path class="st8" d="M541.67,556.65c0.1-0.91,0.15-1.39,0.15-1.39s-9.76,9.31-18.29,26.9l4.07,8.46
			C532.98,573.22,539.03,560.98,541.67,556.65z"/>
		<path class="st8" d="M518.51,644.78l13.13-8.48c1.41-8.31,2.74-17.05,3.94-25.53l-13.07,5.68
			C520.76,625.19,519.35,634.79,518.51,644.78z"/>
		<path class="st8" d="M515.82,647.61l-6.89-10.3c-0.57,9.39-0.2,19.6,1.53,30.6c1.68,10.71,3.56,15.33,5.54,15.54
			c-1.05-12.07-0.88-24.32,0.09-36.01L515.82,647.61z"/>
		<path class="st8" d="M528.86,593.33c-1.87,6.06-3.66,13.07-5.2,20.73l13.07-5.68c1.28-9,2.42-17.7,3.37-25.26L528.86,593.33z"/>
		<path class="st8" d="M517.53,684.4c4.32,0.46,9.1-20.18,13.22-44.49l-13.13,8.48C516.65,660.09,516.49,672.33,517.53,684.4z"/>
	</g>
	<g>
		<path class="st8" d="M727.79,640.35c1.22-8.36,1.89-16.26,2.09-23.28l8.03-5.7c1.02,7.54,1.49,15.92,0.96,24.84l-10.89,4.34
			L727.79,640.35z"/>
		<path class="st8" d="M721.66,672.68c2.95-10.19,5.06-20.36,6.45-29.91l0.19,0.2l10.89-4.34c-0.54,9.09-2.13,18.74-5.28,28.62
			l-12.01,5.76L721.66,672.68z"/>
		<path class="st8" d="M727.33,614.03l-9.03-16.8c2.84-12.08,5.16-21.33,6.03-24.75C725.69,578.29,727.9,593.87,727.33,614.03z"/>
		<path class="st8" d="M726.3,573.45c0.24-0.94,0.37-1.44,0.37-1.44s7.66,15.01,10.66,37.3l-8.03,5.7
			C729.88,594.84,727.66,579.26,726.3,573.45z"/>
		<path class="st8" d="M726.78,616.87c-0.2,7.02-0.87,14.91-2.09,23.28l-12.91-13.52c2.04-9.51,4.12-18.64,5.98-26.56L726.78,616.87
			z"/>
		<path class="st8" d="M714.2,679.45c-5.41-1.6-5.53-24.67-3.82-51.14l13.68,14.79C722,655.36,718.82,667.78,714.2,679.45z"/>
		<path class="st8" d="M685.68,639.43c-2.29-3.9-4.64-7.42-6.9-10.42l1.41-5.09c2.93,2.81,5.93,6.14,8.68,10.04l-3.04,5.49
			L685.68,639.43z"/>
		<path class="st8" d="M693.93,654.99c-2.19-5.25-4.71-10.2-7.32-14.66l0.14,0.02l3.04-5.49c2.81,3.98,5.37,8.54,7.37,13.73
			l-3.03,6.45L693.93,654.99z"/>
		<path class="st8" d="M676.71,628.6l-9.32-3.97c-2.86-6-4.99-10.64-5.77-12.36C664.11,614.24,670.22,619.99,676.71,628.6z"/>
		<path class="st8" d="M662.75,612.01c-0.21-0.47-0.33-0.73-0.33-0.73s8.16,3.68,16.83,11.97l-1.41,5.09
			C671.36,619.73,665.25,613.98,662.75,612.01z"/>
		<path class="st8" d="M692.82,656.17l-10.32-2.78c-2.31-4.27-4.63-8.78-6.82-13.17l9.83,1.29
			C688.11,645.97,690.63,650.93,692.82,656.17z"/>
		<path class="st8" d="M695.11,657.33l3.03-6.45c1.91,4.96,3.31,10.49,3.92,16.63c0.59,5.97,0.06,8.7-1.26,9.08
			c-1.24-6.62-3.34-13.17-5.9-19.31L695.11,657.33z"/>
		<path class="st8" d="M677.43,629.97c2.26,3,4.62,6.52,6.9,10.42l-9.83-1.29c-2.33-4.66-4.52-9.17-6.39-13.1L677.43,629.97z"/>
		<path class="st8" d="M699.91,677.31c-2.87,0.83-9.48-9.6-16.22-22.09l10.32,2.78C696.57,664.14,698.67,670.69,699.91,677.31z"/>
		<path class="st8" d="M763,644.21c2.53-5.16,4.62-10.05,6.24-14.42l6.16-3.11c-0.98,4.77-2.47,10.03-4.69,15.56l-7.64,2.1
			L763,644.21z"/>
		<path class="st8" d="M752.34,664.05c3.99-6.2,7.45-12.43,10.34-18.32l0.07,0.13l7.64-2.1c-2.27,5.65-5.3,11.58-9.35,17.58
			l-8.63,2.93L752.34,664.05z"/>
		<path class="st8" d="M768.32,627.74l-1.99-11c4.32-7.39,7.72-13.03,8.98-15.12C774.91,605.33,772.96,615.18,768.32,627.74z"/>
		<path class="st8" d="M776.32,602.34c0.35-0.57,0.53-0.88,0.53-0.88s1.53,9.8-1.36,23.88l-6.16,3.11
			C773.97,615.9,775.92,606.05,776.32,602.34z"/>
		<path class="st8" d="M750.39,664.14l-3.87-10.82c2.9-5.48,6.03-11.18,9.12-16.66l5.09,9.16
			C757.85,651.7,754.38,657.93,750.39,664.14z"/>
		<path class="st8" d="M750.7,666.99l8.63-2.93c-3.87,5.74-8.65,11.53-14.59,17.18c-5.77,5.5-8.94,7.35-10.19,6.59
			c6.01-6.58,11.4-13.8,16.06-21.06L750.7,666.99z"/>
		<path class="st8" d="M767.37,629.48c-1.62,4.37-3.71,9.27-6.24,14.42l-5.09-9.16c3.28-5.83,6.51-11.41,9.34-16.25L767.37,629.48z"
			/>
		<path class="st8" d="M733.23,687.7c-2.73-1.67,3.72-15.85,12.2-31.88l3.87,10.82C744.63,673.9,739.24,681.12,733.23,687.7z"/>
	</g>
	<g>
		<path class="st8" d="M1024.8,637.05c1.22-8.36,1.89-16.26,2.09-23.28l8.03-5.7c1.02,7.54,1.49,15.92,0.96,24.84l-10.89,4.34
			L1024.8,637.05z"/>
		<path class="st8" d="M1018.66,669.38c2.95-10.19,5.06-20.36,6.45-29.91l0.19,0.2l10.89-4.34c-0.54,9.09-2.13,18.74-5.28,28.62
			l-12.01,5.76L1018.66,669.38z"/>
		<path class="st8" d="M1024.33,610.73l-9.03-16.8c2.84-12.08,5.16-21.33,6.03-24.75C1022.69,574.99,1024.91,590.57,1024.33,610.73z
			"/>
		<path class="st8" d="M1023.31,570.15c0.24-0.94,0.37-1.44,0.37-1.44s7.66,15.01,10.66,37.3l-8.03,5.7
			C1026.88,591.54,1024.66,575.96,1023.31,570.15z"/>
		<path class="st8" d="M1023.79,613.57c-0.2,7.02-0.87,14.91-2.09,23.28l-12.91-13.52c2.04-9.51,4.12-18.64,5.98-26.56
			L1023.79,613.57z"/>
		<path class="st8" d="M1011.2,676.15c-5.41-1.6-5.53-24.67-3.82-51.14l13.68,14.79C1019.01,652.06,1015.82,664.48,1011.2,676.15z"
			/>
		<path class="st8" d="M982.68,636.13c-2.29-3.9-4.64-7.42-6.9-10.42l1.41-5.09c2.93,2.81,5.93,6.14,8.68,10.04l-3.04,5.49
			L982.68,636.13z"/>
		<path class="st8" d="M990.94,651.69c-2.19-5.25-4.71-10.2-7.32-14.66l0.14,0.02l3.04-5.49c2.81,3.98,5.37,8.54,7.37,13.73
			l-3.03,6.45L990.94,651.69z"/>
		<path class="st8" d="M973.71,625.3l-9.32-3.97c-2.86-6-4.99-10.64-5.77-12.36C961.12,610.94,967.22,616.69,973.71,625.3z"/>
		<path class="st8" d="M959.75,608.71c-0.21-0.47-0.33-0.73-0.33-0.73s8.16,3.68,16.83,11.97l-1.41,5.09
			C968.36,616.43,962.25,610.68,959.75,608.71z"/>
		<path class="st8" d="M989.82,652.87l-10.32-2.78c-2.31-4.27-4.63-8.78-6.82-13.17l9.83,1.29
			C985.12,642.67,987.64,647.62,989.82,652.87z"/>
		<path class="st8" d="M992.12,654.03l3.03-6.45c1.91,4.96,3.31,10.49,3.92,16.63c0.59,5.97,0.06,8.7-1.26,9.08
			c-1.24-6.62-3.34-13.17-5.9-19.31L992.12,654.03z"/>
		<path class="st8" d="M974.43,626.67c2.26,3,4.62,6.52,6.9,10.42l-9.83-1.29c-2.33-4.66-4.52-9.17-6.39-13.1L974.43,626.67z"/>
		<path class="st8" d="M996.91,674c-2.87,0.83-9.48-9.6-16.22-22.09l10.32,2.78C993.57,660.84,995.67,667.39,996.91,674z"/>
		<path class="st8" d="M1060.01,640.91c2.53-5.16,4.62-10.05,6.24-14.42l6.16-3.11c-0.98,4.77-2.47,10.03-4.69,15.56l-7.64,2.1
			L1060.01,640.91z"/>
		<path class="st8" d="M1049.35,660.75c3.99-6.2,7.45-12.43,10.34-18.32l0.07,0.13l7.64-2.1c-2.27,5.65-5.3,11.58-9.35,17.58
			l-8.63,2.93L1049.35,660.75z"/>
		<path class="st8" d="M1065.32,624.44l-1.99-11c4.32-7.39,7.72-13.03,8.98-15.12C1071.91,602.03,1069.96,611.88,1065.32,624.44z"/>
		<path class="st8" d="M1073.32,599.04c0.35-0.57,0.53-0.88,0.53-0.88s1.53,9.8-1.36,23.88l-6.16,3.11
			C1070.97,612.6,1072.92,602.75,1073.32,599.04z"/>
		<path class="st8" d="M1047.4,660.83l-3.87-10.82c2.9-5.48,6.03-11.18,9.12-16.66l5.09,9.16
			C1054.85,648.4,1051.38,654.63,1047.4,660.83z"/>
		<path class="st8" d="M1047.7,663.69l8.63-2.93c-3.87,5.74-8.65,11.53-14.59,17.18c-5.77,5.5-8.94,7.35-10.19,6.59
			c6.01-6.58,11.4-13.8,16.06-21.06L1047.7,663.69z"/>
		<path class="st8" d="M1064.38,626.18c-1.62,4.37-3.71,9.27-6.24,14.42l-5.09-9.16c3.28-5.83,6.51-11.41,9.34-16.25L1064.38,626.18
			z"/>
		<path class="st8" d="M1030.23,684.4c-2.73-1.67,3.72-15.85,12.2-31.88l3.87,10.82C1041.63,670.6,1036.25,677.82,1030.23,684.4z"/>
	</g>
</g>
<g id="Layer_2">
	<path class="st9" d="M-21.67,779.5H1398c0,0-5.61-81-75.44-78.64c-69.84,2.36-105.41,30.81-176.32,24.66
		c-70.91-6.14-100.89-117.72-358.92-62.85c-163.81,34.83-290.62-14.79-303.95-27.48c-4.66-4.44-9.74-8.43-15.28-11.7
		c-28.07-16.55-102.38-45.71-207.02,23.21C126.16,735.54-21.5,657.5-21.5,657.5L-21.67,779.5z"/>
</g>
<g id="Layer_1">
	<path class="st8" d="M364.42,428.46l7.66-1.12c2.23-0.33,4.16-1.43,5.35-3.05c2.08-2.83,4.16-5.75,6.15-8.61l-1.03,0.03
		c-6.24,0.2-11.83,3.07-14.89,7.62C366.53,425,365.45,426.71,364.42,428.46z"/>
	<path class="st8" d="M378.29,546.02l7.99,1.53c2.33,0.45,5.16-0.43,7.83-2.41c4.68-3.47,9.43-7.07,14.05-10.62l-0.96-0.39
		c-5.81-2.35-13.67-0.31-20.93,5.38C383.62,541.59,380.96,543.76,378.29,546.02z"/>
	<path class="st8" d="M250.19,669.95l6.72,4.58c1.96,1.33,4.91,1.66,8.14,0.9c5.67-1.33,11.47-2.74,17.11-4.16l-0.73-0.74
		c-4.4-4.46-12.42-5.72-21.35-3.39C256.85,668,253.54,668.93,250.19,669.95z"/>
	<path class="st8" d="M196.93,473.84l1.56,2.58c0.45,0.75,1.2,1.28,2.06,1.46c1.51,0.32,3.05,0.62,4.55,0.9l-0.16-0.37
		c-0.97-2.21-2.98-3.78-5.36-4.19C198.71,474.08,197.83,473.95,196.93,473.84z"/>
	<path class="st8" d="M120.04,403.41l1.06,8.19c0.31,2.38,0.1,4.49-0.56,5.81c-1.16,2.33-2.38,4.65-3.57,6.89l-0.21-1.1
		c-1.27-6.65-0.87-12.71,1.06-16.15C118.52,405.8,119.26,404.58,120.04,403.41z"/>
	<path class="st8" d="M297.45,554.79l2.47,2.18c0.72,0.63,2.11,0.95,3.84,0.88c3.04-0.13,6.15-0.28,9.19-0.44l-0.22-0.33
		c-1.35-1.97-5.07-2.98-9.89-2.69C301.09,554.5,299.29,554.63,297.45,554.79z"/>
	<path class="st8" d="M152,449.35l7.23-3.72c2.11-1.08,3.8-3.52,4.67-6.73c1.54-5.62,3.06-11.39,4.51-17.03l-1,0.29
		c-6.02,1.74-10.95,8.19-13.16,17.15C153.46,442.57,152.7,445.93,152,449.35z"/>
	<path class="st8" d="M247.68,445.5l8.09-0.89c2.35-0.26,4.81-1.93,6.77-4.61c3.45-4.69,6.93-9.54,10.31-14.28l-1.03-0.09
		c-6.24-0.53-13.16,3.73-18.42,11.3C251.47,439.69,249.56,442.55,247.68,445.5z"/>
	<path class="st8" d="M355.31,488.31l-1.96,6.11c-0.57,1.78-1.74,3.21-3.23,3.96c-2.61,1.32-5.29,2.62-7.9,3.86l0.17-0.84
		c1.02-5.08,4.13-9.26,8.28-11.15C352.17,489.57,353.72,488.92,355.31,488.31z"/>
	<path class="st8" d="M128.3,494.4l3.77-2.32c1.1-0.68,1.97-2.21,2.41-4.23c0.78-3.54,1.55-7.18,2.28-10.73l-0.52,0.18
		c-3.14,1.07-5.69,5.12-6.8,10.77C129.03,490.13,128.65,492.24,128.3,494.4z"/>
	<path class="st8" d="M63.33,454.46l3.46,8.08c1.01,2.35,2.41,4.16,3.86,5c2.55,1.47,5.15,2.92,7.68,4.29l-0.39-1.12
		c-2.37-6.79-6.21-12.1-10.2-14.17C66.29,455.78,64.82,455.09,63.33,454.46z"/>
	<path class="st8" d="M427.66,595.37l7.99,1.53c2.33,0.45,5.16-0.43,7.83-2.41c4.68-3.47,9.43-7.07,14.05-10.62l-0.96-0.39
		c-5.81-2.35-13.67-0.31-20.93,5.38C432.99,590.94,430.33,593.11,427.66,595.37z"/>
	<path class="st8" d="M91.05,361.38l-1.8-7.93c-0.52-2.31-2.47-4.55-5.35-6.2c-5.06-2.89-10.26-5.8-15.37-8.61l0.03,1.04
		c0.18,6.26,5.2,12.65,13.33,17.01C84.85,358.27,87.91,359.85,91.05,361.38z"/>
	<polyline class="st10" points="300.52,628.42 326.29,636.5 307.75,622.95 335.51,613.1 305.42,618.1 310.92,604.45 297.48,616 	"/>
	<polyline class="st10" points="40,631.89 33.27,658.01 45.86,638.71 57.21,665.62 50.61,636.08 64.58,640.64 52.29,628.05 	"/>
	<path class="st8" d="M38.96,318.54l4.16-3.6c1.21-1.05,2.16-3.46,2.62-6.65c0.81-5.59,1.6-11.33,2.35-16.94l-0.58,0.27
		c-3.49,1.64-6.26,8.01-7.4,16.92C39.7,311.79,39.31,315.13,38.96,318.54z"/>
	<path class="st8" d="M51.84,391.25l1.06,8.19c0.31,2.38,0.1,4.49-0.56,5.81c-1.16,2.33-2.38,4.65-3.57,6.89l-0.21-1.1
		c-1.27-6.65-0.87-12.71,1.06-16.15C50.32,393.63,51.06,392.41,51.84,391.25z"/>
	<path class="st8" d="M483.64,745.03l-3.01-0.04c-0.88-0.01-1.71-0.39-2.3-1.04c-1.03-1.14-2.07-2.32-3.07-3.47l0.4-0.05
		c2.4-0.28,4.77,0.67,6.32,2.51C482.54,743.61,483.1,744.31,483.64,745.03z"/>
	<path class="st8" d="M487.13,700.8l-1.98-2.27c-0.58-0.66-0.85-1.53-0.76-2.41c0.16-1.53,0.34-3.09,0.54-4.61l0.3,0.26
		c1.81,1.6,2.69,4,2.35,6.39C487.45,699.04,487.3,699.92,487.13,700.8z"/>
	<path class="st11" d="M250.52,751.29l-184.43,0.32c0,0-44.53,4.41-23.95-7.98c20.58-12.39,59.23-9.49,59.23-9.49l82.71-0.3
		l72.4,7.24c0,0,19.92,1.97,26.4,6.58C289.06,752.05,250.52,751.29,250.52,751.29z"/>
	<polygon class="st12" points="123.42,519.57 117.49,524.5 121.22,530.7 126.41,528.46 122.45,524.99 128.59,525.13 129.51,522.65 	
		"/>
	<polygon class="st12" points="121.37,516.86 116.61,520.68 116.5,525.98 121.45,530.44 122.45,520.68 123.42,519.57 	"/>
	<polygon class="st12" points="119.47,514.37 114.76,518.55 114.76,525.13 117.49,526.97 120.02,518.55 122.45,516.86 	"/>
	<path class="st12" d="M219.59,516.07c0,0-3.24-7.92-15.14-6.36c0,0-7.69-7.63-29.01-11.97l-4-1.23c0,0-8.66,0-30.31,12.43
		l-7.04,3.88l-7.04-1.55l-7.58,3.11l6.49,8.54l5.4-0.4l5.2-3.97l32.54-8.84c0,0,19.83,14.01,30.66,14.79c0,0-1.49,1.49-1.49,10.9
		c0,11.66,20.24,9.26,20.24,9.26l7.51-24.13L219.59,516.07z"/>
	<path class="st12" d="M253.14,540.54c0,0,7.58,3.78,9.56,11.22c0,0,7.61,7.96,14.95,26.78L286,614.7l5.45,9.42l-11.4,1.49
		l0.99-10.41c0,0-13.38-26.27-12.39-34.69c0,0-17.84-12.39-22.8-21.31l-3.06,1.07C242.79,560.26,234.66,544.19,253.14,540.54z"/>
	<path class="st12" d="M247.34,536.89v-9.91l-6.33-10.81l-14.98,4.36c0,0-18.99,21-7.51,24.13
		C230,547.79,247.34,536.89,247.34,536.89z"/>
	<g>
		<path class="st3" d="M173.43,570.22l25.13-34.35c1.84-0.28,14.21-2.71,21.45-18.94l5.45,3.81c-0.55,2.15-3.19,13.31,0.52,18.19
			c1.15,1.51,2.79,2.28,4.89,2.28c0.83,0,1.75-0.12,2.72-0.37l13.67-3.42l4.87,3.06c-0.99,0.54-2.73,1.65-4.48,3.52
			c-2.4,2.57-5.27,7.11-5.27,14.19c0,12.14-10.27,32.66-11.87,35.79L173.43,570.22z"/>
		<path class="st3" d="M220.21,517.68l4.68,3.27c-0.7,2.83-2.99,13.45,0.69,18.28c1.25,1.64,3.03,2.48,5.28,2.48
			c0.87,0,1.83-0.13,2.84-0.38l13.46-3.37l3.99,2.51c-1.04,0.64-2.46,1.68-3.88,3.19c-2.46,2.63-5.4,7.29-5.4,14.53
			c0,11.59-9.49,30.97-11.61,35.16L174.21,570l24.62-33.67C201.33,535.95,212.99,533.33,220.21,517.68 M219.79,516.17
			c-7.73,17.94-21.52,19.23-21.52,19.23l-25.63,35.04l58.09,24.2c0,0,12.14-23.05,12.14-36.43c0-13.38,10.26-17.66,10.26-17.66
			l-5.8-3.65c0,0,0,0-13.88,3.47c-0.96,0.24-1.83,0.35-2.6,0.35c-10.41,0-4.83-20.18-4.83-20.18L219.79,516.17L219.79,516.17z"/>
	</g>
	<g>
		<path d="M172.65,570.44c0,0,72.78,9.75,56.64,26.01s-31.05,4.95-31.05,4.95L172.65,570.44z"/>
	</g>
	<g>
		<path d="M155.65,583.97c-0.18-1.79,0.74-9.88,2.48-9.42c7.44,1.98,22.8,8.81,12.76,27.66
			C160.06,622.53,156.79,595.26,155.65,583.97z"/>
	</g>
	<path class="st12" d="M116.97,596.45c0,0,41.16,12.3,57.16,8.78s-16.5-30.68-16.5-30.68l-40.66,0.17l-67.88,31.55l2.97,7.93
		l26.76-2.97C78.83,611.23,110.02,604.96,116.97,596.45z"/>
	<g>
		<path d="M184.69,614.58c6.58-5.78,20.17-13.64,33.02,4.56c1.06,1.5,1.25,3.45,0.5,5.13c-2.63,5.88-11.09,17.26-33.41-1.79
			C182.39,620.42,182.31,616.68,184.69,614.58z"/>
	</g>
	<path class="st12" d="M186.18,604.16l32.48,1.07l-11.47,59.03l-5.95,57.99h-10.41l-4.66-61.1
		C186.18,661.15,181.03,647.64,186.18,604.16z"/>
	<g>
		<path class="st13" d="M216.46,626.9c-0.31-3.75-2.46-14.48-11.53-18.61l-0.05-0.02l-0.06-0.01c-1.93-0.39-3.8-0.58-5.56-0.58
			c-9.45,0-14.02,5.63-15.84,8.79l0.03-9.2l-18.96,1.93l-6.28-34.28l14.46-3.97c2.59,0.54,47.03,10.06,50.6,28.43
			C226.38,615.43,218.96,624.4,216.46,626.9z"/>
		<path class="st13" d="M172.68,571.46c3.55,0.75,46.62,10.19,50.09,28.01c2.82,14.49-3.06,23.09-5.95,26.31
			c-0.57-4.6-3.04-14.02-11.69-17.95l-0.1-0.05l-0.11-0.02c-1.96-0.39-3.87-0.59-5.66-0.59c-8.41,0-13.02,4.24-15.33,7.51l0.02-6.86
			l0-1.11l-1.1,0.11l-17.95,1.82l-6.11-33.38L172.68,571.46 M172.65,570.44l-15.02,4.12l6.44,35.19l18.87-1.92l-0.04,10.84
			c0.03-0.14,3.61-10.48,16.35-10.48c1.66,0,3.48,0.18,5.46,0.57c10.78,4.9,11.39,19,11.28,19.25c0.24-0.2,11.48-9.55,7.75-28.72
			C219.99,579.91,172.65,570.44,172.65,570.44L172.65,570.44z M182.91,618.66C182.91,618.66,182.91,618.66,182.91,618.66
			C182.91,618.66,182.91,618.66,182.91,618.66L182.91,618.66L182.91,618.66z M216,628.01C216,628.01,216,628.01,216,628.01
			C216,628.01,216,628.01,216,628.01C216,628.01,216,628.01,216,628.01L216,628.01z"/>
	</g>
	<path class="st14" d="M42.01,583.36c0,0,2.62-1.89,4.61,2.72c1.98,4.61,2.48,11.06,2.48,11.06s1,3.8,1.24,4.67l3.22-4.2
		c0,0,6.63,1.24,4.06,4.08c-2.57,2.84-5.54,3.3-5.54,3.3s0.99,7.83,3.97,8.3s-0.5,4.15-0.5,4.15s-3.8,6.79-11.31,6.16
		C36.7,622.95,42.01,583.36,42.01,583.36z"/>
	<path d="M37.43,592.22c0.17-1.74,0.69-3.44,1.53-5c1.71-3.18,4.53-7.26,4.16,1.07c-0.25,5.62,1.38,14.64,1.38,14.64
		s2.12,12.19,5.09,14.49c2.97,2.3-3.47,9.22-9.42,4.61C35.31,618.26,36.74,599.09,37.43,592.22z"/>
	<path d="M191.07,722.99l-6.18,16.11c0,0,1.45,7.03,6.18,10.2c2.44,1.64,5.07,1.91,7.05,1.78c1.94-0.12,3.78-0.88,5.3-2.1
		c2.35-1.9,5.76-5.5,5.76-10.37l-7.04-14.79L191.07,722.99z"/>
	<path class="st14" d="M188.9,715.11c0,0,9.37-12.68,14.83,0.2l-1.59,8.51l5.43,12.03c0,0-9.46,25.5-21.02,0l4.53-12.86
		L188.9,715.11z"/>
	<path class="st15" d="M248.69,523.6l-1.26,3.14c-0.06,0.16-0.14,0.3-0.24,0.44l-5.14,7.47c-0.14,0.2-0.3,0.38-0.49,0.52
		c-1.89,1.39-7.32,2.64-10.58,1.71c-5.21-1.49-5.44-8.12-5.45-8.86c0-0.05,0-0.09-0.01-0.14l-0.15-1.99
		c-0.08-1.05,0.57-2.02,1.58-2.34c4.26-1.33,15.34-4.48,20.29-2.98C248.52,520.97,249.19,522.37,248.69,523.6z"/>
	<path class="st12" d="M226.03,499.97c0,0,31.82-10.33,27.97,2.41c-0.84,2.79-6.61,24.59-6.61,24.59s-10.49,7.93-16.26,6.94
		c-3.46-0.59-5.1-5.63-5.1-5.63S221.98,511.13,226.03,499.97z"/>
	<path d="M226.03,499.97v7.34c0,0-4.9,0.35-4.62-7.34c0.28-7.69,6.41-9.44,6.41-9.44s19.56-5.44,19.56-1.84c0,0,3.67-2.85,5.24-0.37
		c1.57,2.48,10.49,5.95,6.82,10.41s-8.39,19.33-8.39,19.33l-3.67,8.92l2.62-15.86c0,0-0.79-6.46-5.38-3.98l-0.39-5.94
		C244.24,501.2,235.62,498.74,226.03,499.97z"/>
	<polygon class="st12" points="136.57,518.55 131.86,525.49 126.2,528.7 122.51,528.7 122.45,524.99 125.92,524.5 129.51,522.65 	
		"/>
	<polygon class="st12" points="281.05,615.19 277.6,620.43 276.59,626.59 280.05,625.6 	"/>
	<polygon class="st12" points="291.45,624.12 287.98,630.06 276.59,631.28 275.21,625.6 277.12,623.33 280.18,624.82 	"/>
	<path d="M65.51,580.25l0.13-0.22l-4.3-7.45h-0.17l0-0.01h-8.7L49.33,578c3.17,4.12,7.87,6.99,13.26,7.75l3.05-5.28L65.51,580.25z"
		/>
	<path d="M56.68,564.89l-4.43-7.68h-5.29c-1.17,2.57-1.83,5.42-1.83,8.43c0,2.43,0.43,4.77,1.21,6.93h5.91L56.68,564.89z"/>
	<polygon points="74.38,564.73 70.04,557.22 61.17,557.22 56.74,564.9 61.17,572.57 61.34,572.57 61.34,572.58 69.94,572.58 
		69.95,572.57 70.04,572.57 74.38,565.05 74.29,564.89 	"/>
	<rect x="61.17" y="572.57" transform="matrix(0.8661 -0.4998 0.4998 0.8661 -277.9983 107.2772)" width="0.17" height="0.01"/>
	<path d="M70.04,572.57L70.04,572.57l-0.1,0.01l-4.3,7.45l0.13,0.22l-0.13,0.22l3.02,5.23c5.36-0.85,10.03-3.8,13.13-7.98
		l-2.97-5.15H70.04z"/>
	<polygon points="65.64,580.47 65.77,580.25 65.64,580.03 65.51,580.25 	"/>
	<rect x="69.95" y="572.57" width="0.09" height="0.01"/>
	<path d="M74.38,564.73l0.09,0.16l-0.09,0.15l4.34,7.52h5.83c0.79-2.16,1.21-4.5,1.21-6.93c0-3.01-0.66-5.86-1.83-8.43h-5.22
		L74.38,564.73z"/>
	<polygon points="74.38,564.73 74.29,564.89 74.38,565.05 74.47,564.9 	"/>
	<path d="M61,557.2l4.43-7.68l-2.35-4.07c-5.42,0.63-10.19,3.39-13.45,7.42l2.5,4.32H61z"/>
	<path d="M69.97,557.2h8.87l2.46-4.27c-3.25-4.05-8.01-6.82-13.42-7.47l-2.34,4.06L69.97,557.2z"/>
	<path class="st8" d="M1141.17,488.91l5.61,5.66c1.63,1.65,3.73,2.57,5.79,2.57c3.62-0.01,7.3-0.07,10.89-0.16l-0.66-0.83
		c-3.98-5.05-9.77-7.92-15.41-7.68C1145.33,488.54,1143.25,488.69,1141.17,488.91z"/>
	<polyline class="st10" points="1169.95,721.89 1149.26,702.58 1160.64,723.77 1129.95,720.51 1160.64,729.42 1149.26,739.82 
		1167.19,734.99 	"/>
	<polyline class="st10" points="1334.22,633.02 1345.52,632.77 1336.02,629.88 1344.92,622.26 1334.27,628.27 1333.96,622.12 
		1330.86,628.5 	"/>
	<path class="st8" d="M1249.11,458.5l1.63,2.7c0.48,0.79,1.26,1.34,2.16,1.53c1.58,0.33,3.19,0.65,4.77,0.94l-0.17-0.38
		c-1.01-2.32-3.12-3.96-5.61-4.39C1250.97,458.74,1250.05,458.61,1249.11,458.5z"/>
	<path class="st8" d="M1192.33,538.76l7.46,2.46c2.17,0.72,4.27,0.76,5.8,0.14c2.69-1.09,5.4-2.25,8.01-3.4l-0.97-0.41
		c-5.89-2.5-11.87-2.86-15.93-0.99C1195.21,537.24,1193.75,537.97,1192.33,538.76z"/>
	<path class="st8" d="M1145.24,404.91l5.61,5.66c1.63,1.65,3.73,2.57,5.79,2.57c3.62-0.01,7.3-0.07,10.89-0.16l-0.66-0.83
		c-3.98-5.05-9.77-7.92-15.41-7.68C1149.4,404.54,1147.32,404.69,1145.24,404.91z"/>
	<path class="st8" d="M1290.15,414.74l4.7,1.46c1.37,0.43,2.78,0.32,3.91-0.28c1.97-1.05,3.97-2.16,5.9-3.25l-0.6-0.26
		c-3.64-1.6-7.63-1.49-10.64,0.27C1292.32,413.34,1291.23,414.02,1290.15,414.74z"/>
	<path class="st8" d="M1324.53,482.14l5.61,5.66c1.63,1.65,3.73,2.57,5.79,2.57c3.62-0.01,7.3-0.07,10.89-0.16l-0.66-0.83
		c-3.98-5.05-9.77-7.92-15.41-7.68C1328.69,481.77,1326.62,481.92,1324.53,482.14z"/>
	<path class="st8" d="M1335.67,308.42l9.37,9.45c2.73,2.75,6.24,4.3,9.69,4.3c6.05-0.01,12.21-0.12,18.2-0.28l-1.1-1.39
		c-6.65-8.43-16.33-13.24-25.76-12.84C1342.63,307.81,1339.16,308.06,1335.67,308.42z"/>
	<path class="st8" d="M1221.75,418.65l4.69,5.09c1.37,1.48,3.05,2.39,4.65,2.51c2.81,0.21,5.67,0.38,8.44,0.51l-0.56-0.74
		c-3.39-4.48-8.06-7.25-12.43-7.39C1224.96,418.59,1223.35,418.59,1221.75,418.65z"/>
	<path class="st8" d="M1166.64,460.14l7.04,4.8c2.05,1.4,5.14,1.74,8.53,0.94c5.94-1.39,12.01-2.87,17.93-4.36l-0.76-0.77
		c-4.61-4.67-13.01-5.99-22.36-3.55C1173.61,458.1,1170.14,459.08,1166.64,460.14z"/>
	<path class="st8" d="M1085.3,397.86l5.61,5.66c1.63,1.65,3.73,2.57,5.79,2.57c3.62-0.01,7.3-0.07,10.89-0.16l-0.66-0.83
		c-3.98-5.05-9.77-7.92-15.41-7.68C1089.46,397.49,1087.38,397.64,1085.3,397.86z"/>
	<path class="st8" d="M1277.83,358.79l5.61,5.66c1.63,1.65,3.73,2.57,5.79,2.57c3.62-0.01,7.3-0.07,10.89-0.16l-0.66-0.83
		c-3.98-5.05-9.77-7.92-15.41-7.68C1281.99,358.42,1279.92,358.57,1277.83,358.79z"/>
	<path class="st8" d="M1125.44,521.4l1.63,2.7c0.48,0.79,1.26,1.34,2.16,1.53c1.58,0.33,3.19,0.65,4.77,0.94l-0.17-0.38
		c-1.01-2.32-3.12-3.96-5.61-4.39C1127.31,521.64,1126.38,521.51,1125.44,521.4z"/>
	<path class="st8" d="M1217.81,372.38l1.63,2.7c0.48,0.79,1.26,1.34,2.16,1.53c1.58,0.33,3.19,0.65,4.77,0.94l-0.17-0.38
		c-1.01-2.32-3.12-3.96-5.61-4.39C1219.67,372.62,1218.75,372.49,1217.81,372.38z"/>
	<path class="st8" d="M1129.54,559.56l1.63,2.7c0.48,0.79,1.26,1.34,2.16,1.53c1.58,0.33,3.19,0.65,4.77,0.94l-0.17-0.38
		c-1.01-2.32-3.12-3.96-5.61-4.39C1131.41,559.81,1130.48,559.67,1129.54,559.56z"/>
	<path class="st8" d="M1158.38,599.48l-1.02,3.4c-0.3,0.99-1.35,2.03-2.89,2.86c-2.71,1.46-5.51,2.94-8.24,4.37l0.02-0.43
		c0.15-2.62,2.87-5.54,7.22-7.77C1155.05,601.09,1156.69,600.28,1158.38,599.48z"/>
	<path class="st8" d="M1070.09,441.84l7.87,7.06c2.29,2.06,5.41,3.04,8.61,2.74c5.61-0.54,11.33-1.16,16.9-1.81l-0.9-1.07
		c-5.44-6.45-14-9.61-22.78-8.46C1076.59,440.73,1073.35,441.23,1070.09,441.84z"/>
	<path class="st8" d="M1156.68,336.38l4.67,18.8c1.36,5.47,3.34,9.9,5.47,12.24c3.74,4.11,7.56,8.17,11.28,12.04l-0.51-2.58
		c-3.11-15.61-8.52-28.52-14.39-34.42C1161.05,340.32,1158.87,338.28,1156.68,336.38z"/>
	<path class="st11" d="M1265.1,762.17l-152.27,0.33c0,0-43.95-4.83-24.26-12.34c14.48-5.52,53.38-5.25,53.38-5.25l68.29-0.3
		l59.77,7.29c0,0,16.45,1.99,21.8,6.62C1296.91,762.94,1265.1,762.17,1265.1,762.17z"/>
	<g>
		<polygon class="st12" points="1249.46,571.68 1257.11,598.15 1288.16,600.98 1287.71,570.74 		"/>
		<path class="st12" d="M1273.84,527.24c0,0,5.09-0.48,11.38,4.85c0,0,17.35,4.1,25.6,10.87c0,0,3.27-5.39,16.91-17.75l1.17-8
			l9.89,9.26l-4.6,2.64l-18.48,25.43l-2.66,1.54l-4.1-0.44l-23.09-8.92C1285.85,546.7,1264.47,536.48,1273.84,527.24z"/>
		<polygon class="st12" points="1272.03,528.36 1268.73,512.3 1260.47,504.49 1255.69,527.76 		"/>
		<path class="st3" d="M1253.08,527.41l20.67-0.14l8.33,10.63l6.34,8.38c1.33,2.05,2.11,4.46,2.1,6.93
			c-0.01,2.92-1.02,5.38-2.51,9.01v0l-0.08,8.76l-38.48,0.71l-8.1-23.15L1253.08,527.41z"/>
		<path class="st16" d="M1254.33,608.54c0,0-19.1,31.05-27.89,49.67c0,0-7.66,1.96-36.15,54.16l10.12,4.05l31.33-36.44l7.59-7.37
			l3.85-3.61c0,0,24.9-16.35,35.75-39.9C1289.79,605.55,1254.33,608.54,1254.33,608.54z"/>
		<path class="st17" d="M1273.76,638.08l-0.45,1.18c0,0-30.79,0.77-24.62-20.52C1254.86,597.44,1273.76,638.08,1273.76,638.08z"/>
		<path class="st16" d="M1257.33,597.91c0,0,18.15-6.78,30.6,3.31l-0.45,2.84l38.93,28.53l2.47,3.38v4.95l-34.49,59.81l-10.12-3.04
			c0,0,17.35-47.96,24.58-53.34c0,0-23.32,0.79-48.38-10.52C1235.42,622.51,1257.33,597.91,1257.33,597.91z"/>
		<polygon class="st12" points="1284.52,697.94 1294.4,700.72 1290.79,711.6 1279.7,709.07 		"/>
		<polygon class="st12" points="1190.29,712.36 1183.85,723.77 1193.18,728.73 1200.41,716.41 		"/>
		<path class="st12" d="M1244.06,554.67l-4.05-10.4l13.08-16.87c0,0,10.25,6.52,10.32,16.39c0.07,9.21-2.64,26.23-13.64,19.56
			C1246.6,561.44,1245.09,558.36,1244.06,554.67z"/>
		<polygon class="st15" points="1261.34,513.61 1262.21,518.18 1268.88,523.53 1271.27,524.64 1270.47,520.46 		"/>
		<path d="M1276.12,488.95c0,0-2.56-8.73-18.01-7.27s-13.16,17.23-13.16,17.23l2.54,11.86c0,0-0.96,8.42,9.94,8.33l2.61-12.32
			l8.69-2.31L1276.12,488.95z"/>
		<path class="st15" d="M1241.81,548.06v0.47c0.28,2.9,4.6,4.22,6.75,1.89c2.27-2.45,4.05-7.83,4.05-7.83l0.45-8.51L1241.81,548.06z
			"/>
		<path class="st12" d="M1253.08,527.41c0,0-11.28-4.4-15.33,6c0,0-16.2,11.81-24.75,27.41l-3.6,3.78l-1.35,2.84
			c0,0,0.9,8.03,16.2,35.44l6.31-2.5l-10.36-28.68l25.33-26.89c0,0,7.97-0.04,9.32-9.97L1253.08,527.41z"/>
		<path class="st18" d="M1272.41,527.27l6.75,9.92c0.97,4.83-11.07,1.21-13.05-1.42l-8.55-8.51H1272.41z"/>
		<path class="st12" d="M1272.2,493.53l3.91-5.02l0.87,3.19l0.43,5.93l0.3,3.65l1.44,8.21l-2.62,1.24l-1.34,9.68l-4.73,0.04
			l-8.69-4.56l-0.43-2.28l-0.87-9.13l-1.42-1.91c-0.83-1.12-0.45-2.76,0.78-3.36l3.25-1.57l6.08,5.48l1.3-5.48L1272.2,493.53z"/>
		<path d="M1253.08,496.15c0,0-8.83-20.9-27.01-2.86c-18.19,18.04-22.97,9.31-22.97,9.31s7.77,22.6,20.05,9.14
			c10.37-11.36,13.3-19.04,19.93-20.03C1246.13,491.25,1253.08,496.15,1253.08,496.15z"/>
		<path d="M1174.82,728.09l-1.15,2.43c0,0-1.47,4.47,2.73,7.69c3.06,2.35,11.61,7.58,16.01,10.24c1.86,1.12,3.82,2.01,5.88,2.64
			c3.79,1.17,9.83,2.87,11.76,2.47c1.89-0.4,5.92-1.3,7.28-1.87c0.71-0.3,1.16-1.02,1.16-1.82v-3.06L1174.82,728.09z"/>
		<path d="M1272.74,711.95l-1.96,3.45c0,0-1.41,4.23,2.63,7.27c2.95,2.22,11.18,7.17,15.41,9.68c1.79,1.06,3.68,1.9,5.66,2.5
			c3.65,1.11,9.46,2.72,11.32,2.33c1.82-0.38,5.7-1.23,7-1.77c0.68-0.28,1.12-0.96,1.12-1.72v-2.9L1272.74,711.95z"/>
		<path class="st14" d="M1184.15,720.23c0,0-5.86,1.79-9.32,7.86c-3.46,6.06,23.1,19.4,23.1,19.4s9.82,4.24,18.48,1.82
			c8.66-2.43-12.41-14.16-12.41-14.16l-5.49-7.06l3.37-1.92l-5.11-3.54l-1.44,3.54C1195.32,726.16,1187.7,727.53,1184.15,720.23z"/>
		<path class="st14" d="M1281.23,704.98c0,0-5.57,1.71-8.87,7.47s21.97,18.45,21.97,18.45s9.34,4.04,17.57,1.73
			s-11.81-13.47-11.81-13.47l-5.22-6.71l3.21-1.83l-4.86-3.36l-1.37,3.36C1291.86,710.62,1284.61,711.92,1281.23,704.98z"/>
		<path class="st15" d="M1338.72,526.32l4.29-3.17l1.41-3.14l-15.51-2.81l1.13,3.97l2.69,3.06c1.17,1.33,2.82,2.09,4.55,2.09
			H1338.72z"/>
		<polygon class="st12" points="1230.24,599.47 1223,600.93 1221.1,610.48 1225.67,617.05 1235.51,611.69 1235.06,603.82 		"/>
		<polygon class="st12" points="1331.54,517.99 1333.17,520.01 1339.47,523.94 1344.41,520.01 1338.79,515.22 1333.43,511.65 		"/>
		<polygon class="st12" points="1328.9,517.2 1333.43,511.65 1331.54,517.99 1335.98,521.17 1330.5,520.01 		"/>
	</g>
</g>
<g id="Layer_7">
</g>
<g id="Layer_4">
</g>
</svg>
