<?xml version="1.0" encoding="utf-8"?>
<!-- Generator: Adobe Illustrator 27.7.0, SVG Export Plug-In . SVG Version: 6.00 Build 0)  -->
<svg version="1.1" id="Layer_1" xmlns="http://www.w3.org/2000/svg" xmlns:xlink="http://www.w3.org/1999/xlink" x="0px" y="0px"
	 viewBox="0 0 1366 768" style="enable-background:new 0 0 1366 768;" xml:space="preserve">
<style type="text/css">
	.st0{fill:url(#SVGID_1_);}
	.st1{fill:#FF9933;}
	.st2{fill:#99FFFF;}
	.st3{opacity:0.8;fill:#FF9933;enable-background:new    ;}
	.st4{opacity:0.8;fill:url(#SVGID_00000031176598619321101850000013518231632007465120_);enable-background:new    ;}
	.st5{opacity:0.8;fill:url(#SVGID_00000034804014477454007780000013518684033646964384_);enable-background:new    ;}
	.st6{opacity:0.8;fill:url(#SVGID_00000006685088044034973930000009433366958277542556_);enable-background:new    ;}
	.st7{opacity:0.8;fill:url(#SVGID_00000130615331206378548330000011608466259815299233_);enable-background:new    ;}
	.st8{opacity:0.6;}
	.st9{fill:none;stroke:url(#SVGID_00000086686280118666975190000016970257167617394863_);stroke-miterlimit:10;}
	.st10{fill:none;stroke:url(#SVGID_00000066508679773285861160000012912511003756324285_);stroke-miterlimit:10;}
	.st11{fill:none;stroke:url(#SVGID_00000115495799285455293680000015589492463638047636_);stroke-miterlimit:10;}
	.st12{fill:none;stroke:url(#SVGID_00000154404257756284716120000000740908294183066257_);stroke-miterlimit:10;}
	.st13{fill:none;stroke:url(#SVGID_00000144296359148005378440000007321583494188290479_);stroke-miterlimit:10;}
	.st14{fill:none;stroke:url(#SVGID_00000148662236095536036990000004873333835846100655_);stroke-miterlimit:10;}
	.st15{fill:none;stroke:url(#SVGID_00000106108312746081415950000008681076509018771646_);stroke-miterlimit:10;}
	.st16{fill:none;stroke:url(#SVGID_00000137114301640347965670000012238651809664001422_);stroke-miterlimit:10;}
	.st17{fill:none;stroke:url(#SVGID_00000110467826370208260800000000513765990385645979_);stroke-miterlimit:10;}
	.st18{fill:none;stroke:url(#SVGID_00000175303837823591988410000017197074606636081832_);stroke-miterlimit:10;}
	.st19{fill:none;stroke:url(#SVGID_00000131355139612203185730000011758188435782371736_);stroke-miterlimit:10;}
	.st20{fill:none;stroke:url(#SVGID_00000162347665949540853870000009604015648004500402_);stroke-miterlimit:10;}
	.st21{fill:none;stroke:url(#SVGID_00000029004014775860969230000003716963556368099237_);stroke-miterlimit:10;}
	.st22{fill:none;stroke:url(#SVGID_00000012467252222159306100000000346212276221349536_);stroke-miterlimit:10;}
	.st23{fill:none;stroke:url(#SVGID_00000142864045651521847750000009745946118169014434_);stroke-miterlimit:10;}
	.st24{fill:none;stroke:url(#SVGID_00000044143638710011670790000013760211794452342967_);stroke-miterlimit:10;}
	.st25{fill:url(#SVGID_00000034061511102831430020000003765396275774752179_);}
</style>
<g id="Layer_1_00000000215343959947972370000007469997402982503839_">
</g>
<g id="Layer_3">
	
		<linearGradient id="SVGID_1_" gradientUnits="userSpaceOnUse" x1="342.8751" y1="974.8458" x2="1025.125" y2="-206.8457" gradientTransform="matrix(1 0 0 -1 0 768)">
		<stop  offset="0.1534" style="stop-color:#FF9933"/>
		<stop  offset="0.2061" style="stop-color:#FF9B38"/>
		<stop  offset="0.2678" style="stop-color:#FFA346"/>
		<stop  offset="0.334" style="stop-color:#FFAE5E"/>
		<stop  offset="0.4034" style="stop-color:#FFBF7F"/>
		<stop  offset="0.4753" style="stop-color:#FFD4A9"/>
		<stop  offset="0.5482" style="stop-color:#FFEDDC"/>
		<stop  offset="0.5931" style="stop-color:#FFFFFF"/>
	</linearGradient>
	<rect x="-5" y="-6" class="st0" width="1378" height="780"/>
</g>
<g id="Layer_2_00000113345273587332103420000017588160763562342047_">
	<rect x="1557" y="523" class="st1" width="70" height="70"/>
	<rect x="1557" y="629" class="st2" width="70" height="70"/>
	<g>
		<path d="M1121.61-85.59c0-13.07,3.64-23.24,10.92-30.52c7.28-7.28,17.42-10.92,30.41-10.92c13.32,0,23.58,3.58,30.79,10.73
			s10.81,17.17,10.81,30.05c0,9.35-1.57,17.02-4.72,23.01s-7.7,10.65-13.65,13.98s-13.37,5-22.25,5c-9.03,0-16.5-1.44-22.41-4.31
			c-5.91-2.87-10.71-7.42-14.39-13.65C1123.45-68.45,1121.61-76.24,1121.61-85.59z M1146.34-85.48c0,8.08,1.5,13.89,4.5,17.42
			s7.09,5.3,12.26,5.3c5.31,0,9.43-1.73,12.34-5.19c2.91-3.46,4.37-9.66,4.37-18.62c0-7.53-1.52-13.04-4.56-16.51
			c-3.04-3.48-7.16-5.21-12.37-5.21c-4.99,0-8.99,1.77-12.01,5.3C1147.85-99.47,1146.34-93.63,1146.34-85.48z"/>
		<path d="M1217.97-125.66h24.73v28.01h27.02v-28.01h24.84v80.03h-24.84V-78h-27.02v32.37h-24.73V-125.66z"/>
		<path d="M1364.28-78.38l21.67,6.55c-1.46,6.08-3.75,11.16-6.88,15.23c-3.13,4.08-7.02,7.15-11.66,9.23
			c-4.64,2.07-10.55,3.11-17.72,3.11c-8.7,0-15.8-1.26-21.32-3.79c-5.51-2.53-10.27-6.97-14.28-13.34c-4-6.37-6.01-14.51-6.01-24.44
			c0-13.24,3.52-23.41,10.56-30.52s17.01-10.67,29.89-10.67c10.08,0,18.01,2.04,23.78,6.11c5.77,4.08,10.05,10.34,12.86,18.78
			l-21.84,4.86c-0.76-2.44-1.57-4.22-2.4-5.35c-1.38-1.89-3.08-3.35-5.08-4.37c-2-1.02-4.24-1.53-6.71-1.53
			c-5.6,0-9.9,2.25-12.88,6.76c-2.26,3.34-3.38,8.6-3.38,15.76c0,8.87,1.35,14.95,4.04,18.24c2.69,3.29,6.48,4.93,11.36,4.93
			c4.73,0,8.31-1.33,10.73-3.99C1361.43-69.47,1363.18-73.32,1364.28-78.38z"/>
		<path d="M1398.07-125.66h24.73v28.01h27.02v-28.01h24.84v80.03h-24.84V-78h-27.02v32.37h-24.73V-125.66z"/>
		<path d="M1540.3-58.84h-28.08l-3.9,13.21h-25.25l30.08-80.03h26.98l30.07,80.03h-25.9L1540.3-58.84z M1535.17-76.15l-8.83-28.77
			l-8.74,28.77C1517.6-76.15,1535.17-76.15,1535.17-76.15z"/>
		<path d="M1578.06-125.66h24.73v60.33h38.6v19.71h-63.33V-125.66z"/>
		<path d="M1652.64-125.66h24.73v60.33h38.6v19.71h-63.33V-125.66z"/>
		<path d="M1727.16-125.66h66.28v17.09h-41.49v12.72h38.49v16.32h-38.49v15.78h42.69v18.12h-67.48V-125.66z"/>
	</g>
	<path class="st3" d="M-575.3,397.44c0-52.03,10.34-92.53,31.01-121.52s49.46-43.48,86.36-43.48c37.83,0,66.98,14.24,87.44,42.72
		s30.7,68.37,30.7,119.67c0,37.25-4.47,67.79-13.41,91.63s-21.86,42.39-38.76,55.65S-429.92,562-455.14,562
		c-25.63,0-46.85-5.72-63.64-17.17c-16.8-11.45-30.41-29.56-40.85-54.35C-570.08,465.7-575.3,434.69-575.3,397.44z M-505.07,397.87
		c0,32.17,4.26,55.29,12.79,69.35s20.13,21.09,34.81,21.09c15.09,0,26.77-6.88,35.04-20.65c8.27-13.77,12.4-38.48,12.4-74.13
		c0-30-4.32-51.92-12.95-65.76s-20.34-20.76-35.12-20.76c-14.16,0-25.53,7.03-34.11,21.09
		C-500.78,342.15-505.07,365.41-505.07,397.87z"/>
	<path class="st3" d="M-301.66,237.87h70.23v111.52h76.74V237.87h70.54v318.69h-70.54V427.65h-76.74v128.91h-70.23V237.87z"/>
	<path class="st3" d="M113.84,426.13l61.55,26.09c-4.13,24.21-10.65,44.42-19.53,60.65c-8.89,16.23-19.92,28.48-33.1,36.74
		S92.81,562,72.45,562c-24.7,0-44.88-5.03-60.54-15.1c-15.66-10.06-29.17-27.77-40.54-53.11C-40,468.44-45.68,436-45.68,396.46
		c0-52.72,10-93.23,30-121.55s48.29-42.47,84.88-42.47c28.63,0,51.14,8.12,67.52,24.35s28.55,41.16,36.51,74.78l-62.01,19.35
		c-2.17-9.71-4.44-16.81-6.82-21.3c-3.93-7.53-8.73-13.33-14.42-17.39c-5.68-4.05-12.04-6.09-19.07-6.09
		c-15.92,0-28.11,8.98-36.59,26.93c-6.41,13.32-9.61,34.24-9.61,62.75c0,35.32,3.82,59.53,11.47,72.63s18.4,19.65,32.25,19.65
		c13.44,0,23.59-5.29,30.46-15.87C105.75,461.64,110.74,446.28,113.84,426.13z"/>
	<path class="st3" d="M209.81,237.87h70.23v111.52h76.74V237.87h70.54v318.69h-70.54V427.65h-76.74v128.91h-70.23V237.87z"/>
	
		<linearGradient id="SVGID_00000072274107325821090260000012963732891897570985_" gradientUnits="userSpaceOnUse" x1="451.2" y1="370.775" x2="698.65" y2="370.775" gradientTransform="matrix(1 0 0 -1 0 768)">
		<stop  offset="0" style="stop-color:#FF9933"/>
		<stop  offset="1" style="stop-color:#FFB368"/>
	</linearGradient>
	<path style="opacity:0.8;fill:url(#SVGID_00000072274107325821090260000012963732891897570985_);enable-background:new    ;" d="
		M613.73,503.96h-79.74l-11.08,52.61H451.2l85.43-318.69h76.61l85.41,318.69H625.1L613.73,503.96z M599.16,435.05l-25.09-114.56
		l-24.82,114.56H599.16z"/>
	
		<linearGradient id="SVGID_00000127002763925893919820000004254478464859336093_" gradientUnits="userSpaceOnUse" x1="720.97" y1="370.785" x2="900.8099" y2="370.785" gradientTransform="matrix(1 0 0 -1 0 768)">
		<stop  offset="0" style="stop-color:#FF9933"/>
		<stop  offset="1" style="stop-color:#FFB368"/>
	</linearGradient>
	<path style="opacity:0.8;fill:url(#SVGID_00000127002763925893919820000004254478464859336093_);enable-background:new    ;" d="
		M720.97,237.87h70.23v240.21h109.61v78.48H720.97V237.87z"/>
	
		<linearGradient id="SVGID_00000083779643638321145130000012149659649591849630_" gradientUnits="userSpaceOnUse" x1="932.75" y1="370.785" x2="1112.59" y2="370.785" gradientTransform="matrix(1 0 0 -1 0 768)">
		<stop  offset="0" style="stop-color:#FF9933"/>
		<stop  offset="1" style="stop-color:#FFB368"/>
	</linearGradient>
	<path style="opacity:0.8;fill:url(#SVGID_00000083779643638321145130000012149659649591849630_);enable-background:new    ;" d="
		M932.75,237.87h70.23v240.21h109.61v78.48H932.75V237.87z"/>
	
		<linearGradient id="SVGID_00000011033070754691380610000003082383442571030960_" gradientUnits="userSpaceOnUse" x1="1144.37" y1="370.785" x2="1336" y2="370.785" gradientTransform="matrix(1 0 0 -1 0 768)">
		<stop  offset="0" style="stop-color:#FF9933"/>
		<stop  offset="1" style="stop-color:#FFB368"/>
	</linearGradient>
	<path style="opacity:0.8;fill:url(#SVGID_00000011033070754691380610000003082383442571030960_);enable-background:new    ;" d="
		M1144.37,237.87h188.22v68.04h-117.83v50.65h109.3v65h-109.3v62.83H1336v72.17h-191.63V237.87z"/>
	<g class="st8">
		
			<linearGradient id="SVGID_00000152976046469505785460000010993096627951430028_" gradientUnits="userSpaceOnUse" x1="3.3407" y1="754.7728" x2="227.4481" y2="530.6654" gradientTransform="matrix(1 0 0 -1 0 768)">
			<stop  offset="0" style="stop-color:#FF9933"/>
			<stop  offset="1" style="stop-color:#FFDCB9"/>
		</linearGradient>
		<path style="fill:none;stroke:url(#SVGID_00000152976046469505785460000010993096627951430028_);stroke-miterlimit:10;" d="
			M-5.03,125.23c0-56.2,10.54-99.96,31.62-131.27C47.67-37.34,77.03-53,114.65-53c38.58,0,68.3,15.38,89.17,46.14
			s31.3,73.85,31.3,129.27c0,40.24-4.56,73.23-13.68,98.98c-9.12,25.75-22.29,45.79-39.52,60.12S143.22,303,117.5,303
			c-26.14,0-47.77-6.18-64.9-18.55c-17.13-12.36-31.01-31.94-41.66-58.71S-5.03,165.47-5.03,125.23z M66.59,125.7
			c0,34.75,4.35,59.73,13.04,74.91c8.7,15.19,20.53,22.78,35.49,22.78c15.39,0,27.3-7.43,35.73-22.31
			c8.43-14.87,12.65-41.56,12.65-80.08c0-32.41-4.4-56.08-13.2-71.04c-8.8-14.95-20.74-22.43-35.81-22.43
			c-14.44,0-26.03,7.6-34.78,22.78C70.97,65.51,66.59,90.64,66.59,125.7z"/>
		
			<linearGradient id="SVGID_00000052081165806758871180000011472550535581989285_" gradientUnits="userSpaceOnUse" x1="247.3473" y1="780.5676" x2="522.4827" y2="505.4324" gradientTransform="matrix(1 0 0 -1 0 768)">
			<stop  offset="0" style="stop-color:#FF9933"/>
			<stop  offset="1" style="stop-color:#FFDCB9"/>
		</linearGradient>
		<path style="fill:none;stroke:url(#SVGID_00000052081165806758871180000011472550535581989285_);stroke-miterlimit:10;" d="
			M286.4-47.13h46.85c6.84,0,12.38,8.23,12.38,18.39v83.68c0,10.16,5.54,18.39,12.38,18.39h53.49c6.84,0,12.38-8.23,12.38-18.39
			v-83.68c0-10.16,5.54-18.39,12.38-18.39h47.17c6.84,0,12.38,8.23,12.38,18.39v307.48c0,10.16-5.54,18.39-12.38,18.39h-47.17
			c-6.84,0-12.38-8.23-12.38-18.39V176.27c0-10.16-5.54-18.39-12.38-18.39h-53.49c-6.84,0-12.38,8.23-12.38,18.39v102.47
			c0,10.16-5.54,18.39-12.38,18.39H286.4c-6.84,0-12.38-8.23-12.38-18.39V-28.74C274.02-38.9,279.56-47.13,286.4-47.13z"/>
		
			<linearGradient id="SVGID_00000040567202036897246880000009989218438045937058_" gradientUnits="userSpaceOnUse" x1="540.5062" y1="753.9874" x2="762.9835" y2="531.5103" gradientTransform="matrix(1 0 0 -1 0 768)">
			<stop  offset="0" style="stop-color:#FF9933"/>
			<stop  offset="1" style="stop-color:#FFDCB9"/>
		</linearGradient>
		<path style="fill:none;stroke:url(#SVGID_00000040567202036897246880000009989218438045937058_);stroke-miterlimit:10;" d="
			M709.88,161.69l38.94,17.48c6.69,3,10.38,13.65,8.17,23.49c-4.08,18.23-9.56,33.98-16.43,47.26
			c-9.06,17.53-20.32,30.76-33.75,39.69c-13.44,8.92-30.54,13.39-51.3,13.39c-25.19,0-45.77-5.44-61.74-16.31s-29.75-30-41.34-57.37
			c-11.59-27.38-17.39-62.43-17.39-105.14c0-56.95,10.2-100.71,30.59-131.3S614.87-53,652.19-53c29.2,0,52.15,8.77,68.85,26.3
			c13.3,13.96,23.88,33.88,31.74,59.76c3.24,10.69-0.86,23.13-8.57,25.67L705.58,71.5c-5.67,1.87-11.57-2.26-13.95-10.13
			c-1.16-3.84-2.35-6.97-3.56-9.39c-4.01-8.14-8.91-14.4-14.7-18.79c-5.8-4.38-12.28-6.58-19.45-6.58
			c-16.23,0-28.67,9.7-37.31,29.09c-6.53,14.39-9.8,36.98-9.8,67.78c0,38.16,3.9,64.31,11.7,78.46
			c7.8,14.15,18.76,21.23,32.88,21.23c13.7,0,24.06-5.71,31.07-17.14c5.03-8.2,9.07-19.07,12.12-32.6
			C696.7,164.01,703.49,158.82,709.88,161.69z"/>
		
			<linearGradient id="SVGID_00000142859212317567991810000010190741403785548989_" gradientUnits="userSpaceOnUse" x1="768.9073" y1="780.5676" x2="1044.0427" y2="505.4324" gradientTransform="matrix(1 0 0 -1 0 768)">
			<stop  offset="0" style="stop-color:#FF9933"/>
			<stop  offset="1" style="stop-color:#FFDCB9"/>
		</linearGradient>
		<path style="fill:none;stroke:url(#SVGID_00000142859212317567991810000010190741403785548989_);stroke-miterlimit:10;" d="
			M807.96-47.13h46.85c6.84,0,12.38,8.23,12.38,18.39v83.68c0,10.16,5.54,18.39,12.38,18.39h53.49c6.84,0,12.38-8.23,12.38-18.39
			v-83.68c0-10.16,5.54-18.39,12.38-18.39h47.17c6.84,0,12.38,8.23,12.38,18.39v307.48c0,10.16-5.54,18.39-12.38,18.39h-47.17
			c-6.84,0-12.38-8.23-12.38-18.39V176.27c0-10.16-5.54-18.39-12.38-18.39h-53.49c-6.84,0-12.38,8.23-12.38,18.39v102.47
			c0,10.16-5.54,18.39-12.38,18.39h-46.85c-6.84,0-12.38-8.23-12.38-18.39V-28.74C795.58-38.9,801.12-47.13,807.96-47.13z"/>
		
			<linearGradient id="SVGID_00000039832901161597154190000006610971414795542941_" gradientUnits="userSpaceOnUse" x1="1044.8899" y1="727.1087" x2="1290.8962" y2="481.1025" gradientTransform="matrix(1 0 0 -1 0 768)">
			<stop  offset="0" style="stop-color:#FF9933"/>
			<stop  offset="1" style="stop-color:#FFDCB9"/>
		</linearGradient>
		<path style="fill:none;stroke:url(#SVGID_00000039832901161597154190000006610971414795542941_);stroke-miterlimit:10;" d="
			M1198.28,240.3h-62.87c-5.49,0-10.32,5.37-11.88,13.18l-6.05,30.46c-1.55,7.82-6.39,13.18-11.88,13.18h-45.99
			c-8.65,0-14.63-12.84-11.59-24.86l77.8-307.48c1.81-7.17,6.43-11.92,11.59-11.92h60.97c5.16,0,9.78,4.75,11.59,11.92l77.79,307.48
			c3.04,12.03-2.94,24.86-11.59,24.86h-47.93c-5.46,0-10.27-5.3-11.85-13.06l-6.27-30.71C1208.55,245.6,1203.74,240.3,1198.28,240.3
			z M1187.69,142.07l-8.76-42.4c-3.59-17.35-20.13-17.31-23.68,0.05l-8.67,42.4c-2.42,11.81,3.53,23.74,11.85,23.74h17.44
			C1184.18,165.86,1190.14,153.9,1187.69,142.07z"/>
		
			<linearGradient id="SVGID_00000116924446121162628830000017403735243164871298_" gradientUnits="userSpaceOnUse" x1="1252.6121" y1="743.0229" x2="1508.5376" y2="487.0974" gradientTransform="matrix(1 0 0 -1 0 768)">
			<stop  offset="0" style="stop-color:#FF9933"/>
			<stop  offset="1" style="stop-color:#FFDCB9"/>
		</linearGradient>
		<path style="fill:none;stroke:url(#SVGID_00000116924446121162628830000017403735243164871298_);stroke-miterlimit:10;" d="
			M1329.21-47.13h46.85c6.84,0,12.38,8.23,12.38,18.39v222.7c0,10.16,5.54,18.39,12.38,18.39h87.01c6.84,0,12.38,8.23,12.38,18.39
			v47.99c0,10.16-5.54,18.39-12.38,18.39H1329.2c-6.84,0-12.38-8.23-12.38-18.39V-28.74C1316.83-38.9,1322.37-47.13,1329.21-47.13z"
			/>
		
			<linearGradient id="SVGID_00000153689815892148672720000011896524775079238047_" gradientUnits="userSpaceOnUse" x1="1468.5721" y1="743.0229" x2="1724.4977" y2="487.0974" gradientTransform="matrix(1 0 0 -1 0 768)">
			<stop  offset="0" style="stop-color:#FF9933"/>
			<stop  offset="1" style="stop-color:#FFDCB9"/>
		</linearGradient>
		<path style="fill:none;stroke:url(#SVGID_00000153689815892148672720000011896524775079238047_);stroke-miterlimit:10;" d="
			M1545.17-47.13h46.85c6.84,0,12.38,8.23,12.38,18.39v222.7c0,10.16,5.54,18.39,12.38,18.39h87.01c6.84,0,12.38,8.23,12.38,18.39
			v47.99c0,10.16-5.54,18.39-12.38,18.39h-158.63c-6.84,0-12.38-8.23-12.38-18.39V-28.74C1532.79-38.9,1538.33-47.13,1545.17-47.13z
			"/>
		
			<linearGradient id="SVGID_00000013879483056247290520000016021032226116691843_" gradientUnits="userSpaceOnUse" x1="1714.4598" y1="773.1052" x2="1976.3976" y2="511.1674" gradientTransform="matrix(1 0 0 -1 0 768)">
			<stop  offset="0" style="stop-color:#FF9933"/>
			<stop  offset="1" style="stop-color:#FFDCB9"/>
		</linearGradient>
		<path style="fill:none;stroke:url(#SVGID_00000013879483056247290520000016021032226116691843_);stroke-miterlimit:10;" d="
			M1760.97-47.13h167.17c6.84,0,12.38,8.23,12.38,18.39V7.98c0,10.16-5.54,18.39-12.38,18.39h-95.39c-6.84,0-12.38,8.23-12.38,18.39
			V62.7c0,10.16,5.54,18.39,12.38,18.39h86.69c6.84,0,12.38,8.23,12.38,18.39v33.43c0,10.16-5.54,18.39-12.38,18.39h-86.69
			c-6.84,0-12.38,8.23-12.38,18.39v31.08c0,10.16,5.54,18.39,12.38,18.39h98.87c6.84,0,12.38,8.23,12.38,18.39v41.18
			c0,10.16-5.54,18.39-12.38,18.39h-170.64c-6.84,0-12.38-8.23-12.38-18.39V-28.74C1748.59-38.9,1754.14-47.13,1760.97-47.13z"/>
	</g>
	<g class="st8">
		
			<linearGradient id="SVGID_00000165222687430619534750000000784303243062495910_" gradientUnits="userSpaceOnUse" x1="59.3422" y1="245.306" x2="244.0151" y2="60.6331" gradientTransform="matrix(1 0 0 -1 0 768)">
			<stop  offset="0" style="stop-color:#FF9933"/>
			<stop  offset="1" style="stop-color:#FFDCB9"/>
		</linearGradient>
		<path style="fill:none;stroke:url(#SVGID_00000165222687430619534750000000784303243062495910_);stroke-miterlimit:10;" d="
			M31.21,615.06c0-40.7,10.54-72.38,31.62-95.05C83.91,497.34,113.27,486,150.89,486c38.58,0,68.3,11.14,89.17,33.41
			c20.87,22.27,31.3,53.48,31.3,93.6c0,29.14-4.56,53.03-13.68,71.67c-9.12,18.65-22.29,33.16-39.52,43.53s-38.71,15.56-64.42,15.56
			c-26.14,0-47.77-4.48-64.9-13.43s-31.01-23.12-41.66-42.51S31.21,644.19,31.21,615.06z M102.83,615.4
			c0,25.17,4.35,43.25,13.04,54.24c8.7,11,20.53,16.49,35.49,16.49c15.39,0,27.3-5.38,35.73-16.15s12.65-30.1,12.65-57.98
			c0-23.46-4.4-40.61-13.2-51.44c-8.8-10.82-20.74-16.24-35.81-16.24c-14.44,0-26.03,5.5-34.78,16.49
			C107.21,571.81,102.83,590.01,102.83,615.4z"/>
		
			<linearGradient id="SVGID_00000178168512233639388830000017356212909568817302_" gradientUnits="userSpaceOnUse" x1="306.7904" y1="267.4747" x2="535.5179" y2="38.7471" gradientTransform="matrix(1 0 0 -1 0 768)">
			<stop  offset="0" style="stop-color:#FF9933"/>
			<stop  offset="1" style="stop-color:#FFDCB9"/>
		</linearGradient>
		<path style="fill:none;stroke:url(#SVGID_00000178168512233639388830000017356212909568817302_);stroke-miterlimit:10;" d="
			M322.64,490.25h46.85c6.84,0,12.38,5.96,12.38,13.32v60.59c0,7.35,5.54,13.32,12.38,13.32h53.49c6.84,0,12.38-5.96,12.38-13.32
			v-60.59c0-7.35,5.54-13.32,12.38-13.32h47.17c6.84,0,12.38,5.96,12.38,13.32v222.64c0,7.35-5.54,13.32-12.38,13.32H472.5
			c-6.84,0-12.38-5.96-12.38-13.32v-74.2c0-7.35-5.54-13.32-12.38-13.32h-53.49c-6.84,0-12.38,5.96-12.38,13.32v74.2
			c0,7.35-5.54,13.32-12.38,13.32h-46.85c-6.84,0-12.38-5.96-12.38-13.32V503.57C310.26,496.21,315.8,490.25,322.64,490.25z"/>
		
			<linearGradient id="SVGID_00000073683740647631189620000010649584720897779598_" gradientUnits="userSpaceOnUse" x1="596.4698" y1="244.1958" x2="778.6948" y2="61.9709" gradientTransform="matrix(1 0 0 -1 0 768)">
			<stop  offset="0" style="stop-color:#FF9933"/>
			<stop  offset="1" style="stop-color:#FFDCB9"/>
		</linearGradient>
		<path style="fill:none;stroke:url(#SVGID_00000073683740647631189620000010649584720897779598_);stroke-miterlimit:10;" d="
			M746.12,641.46l38.94,12.66c6.69,2.17,10.38,9.88,8.17,17.01c-4.08,13.2-9.56,24.6-16.43,34.22
			c-9.06,12.7-20.32,22.27-33.75,28.74s-30.54,9.69-51.3,9.69c-25.19,0-45.77-3.94-61.74-11.81s-29.75-21.72-41.34-41.54
			c-11.59-19.83-17.39-45.2-17.39-76.13c0-41.23,10.2-72.92,30.59-95.07c20.39-22.15,49.25-33.22,86.56-33.22
			c29.2,0,52.15,6.35,68.85,19.04c13.3,10.11,23.88,24.53,31.74,43.27c3.24,7.74-0.86,16.74-8.57,18.59l-38.63,9.24
			c-5.67,1.36-11.57-1.64-13.95-7.34c-1.16-2.78-2.35-5.05-3.56-6.8c-4.01-5.89-8.91-10.43-14.7-13.6
			c-5.8-3.17-12.28-4.76-19.45-4.76c-16.23,0-28.67,7.02-37.31,21.06c-6.53,10.42-9.8,26.78-9.8,49.08c0,27.63,3.9,46.57,11.7,56.81
			c7.8,10.25,18.76,15.37,32.88,15.37c13.7,0,24.06-4.14,31.07-12.41c5.03-5.94,9.07-13.81,12.12-23.61
			C732.94,643.13,739.73,639.38,746.12,641.46z"/>
		
			<linearGradient id="SVGID_00000098923419067510383530000005211902353884987799_" gradientUnits="userSpaceOnUse" x1="828.3503" y1="267.4746" x2="1057.0779" y2="38.7471" gradientTransform="matrix(1 0 0 -1 0 768)">
			<stop  offset="0" style="stop-color:#FF9933"/>
			<stop  offset="1" style="stop-color:#FFDCB9"/>
		</linearGradient>
		<path style="fill:none;stroke:url(#SVGID_00000098923419067510383530000005211902353884987799_);stroke-miterlimit:10;" d="
			M844.2,490.25h46.85c6.84,0,12.38,5.96,12.38,13.32v60.59c0,7.35,5.54,13.32,12.38,13.32h53.49c6.84,0,12.38-5.96,12.38-13.32
			v-60.59c0-7.35,5.54-13.32,12.38-13.32h47.17c6.84,0,12.38,5.96,12.38,13.32v222.64c0,7.35-5.54,13.32-12.38,13.32h-47.17
			c-6.84,0-12.38-5.96-12.38-13.32v-74.2c0-7.35-5.54-13.32-12.38-13.32h-53.49c-6.84,0-12.38,5.96-12.38,13.32v74.2
			c0,7.35-5.54,13.32-12.38,13.32H844.2c-6.84,0-12.38-5.96-12.38-13.32V503.57C831.82,496.21,837.36,490.25,844.2,490.25z"/>
		
			<linearGradient id="SVGID_00000067929335030353694680000009776650320968092039_" gradientUnits="userSpaceOnUse" x1="1104.3357" y1="214.0025" x2="1303.9293" y2="14.4088" gradientTransform="matrix(1 0 0 -1 0 768)">
			<stop  offset="0" style="stop-color:#FF9933"/>
			<stop  offset="1" style="stop-color:#FFDCB9"/>
		</linearGradient>
		<path style="fill:none;stroke:url(#SVGID_00000067929335030353694680000009776650320968092039_);stroke-miterlimit:10;" d="
			M1234.52,698.37h-62.87c-5.49,0-10.32,3.89-11.88,9.55l-6.05,22.06c-1.55,5.66-6.39,9.55-11.88,9.55h-45.99
			c-8.65,0-14.63-9.29-11.59-18l77.8-222.64c1.81-5.19,6.43-8.63,11.59-8.63h60.97c5.16,0,9.78,3.44,11.59,8.63L1324,721.53
			c3.04,8.71-2.94,18-11.59,18h-47.93c-5.46,0-10.27-3.84-11.85-9.45l-6.27-22.24C1244.79,702.21,1239.98,698.37,1234.52,698.37z
			 M1223.93,627.25l-8.76-30.7c-3.59-12.56-20.13-12.54-23.68,0.04l-8.67,30.7c-2.42,8.55,3.54,17.19,11.85,17.19h17.44
			C1220.43,644.47,1226.38,635.81,1223.93,627.25z"/>
		
			<linearGradient id="SVGID_00000041285290477547342060000000378554689858366652_" gradientUnits="userSpaceOnUse" x1="1312.0498" y1="229.9252" x2="1521.5778" y2="20.3971" gradientTransform="matrix(1 0 0 -1 0 768)">
			<stop  offset="0" style="stop-color:#FF9933"/>
			<stop  offset="1" style="stop-color:#FFDCB9"/>
		</linearGradient>
		<path style="fill:none;stroke:url(#SVGID_00000041285290477547342060000000378554689858366652_);stroke-miterlimit:10;" d="
			M1365.45,490.25h46.85c6.84,0,12.38,5.96,12.38,13.32v161.26c0,7.35,5.54,13.32,12.38,13.32h87.01c6.84,0,12.38,5.96,12.38,13.32
			v34.75c0,7.35-5.54,13.32-12.38,13.32h-158.63c-6.84,0-12.38-5.96-12.38-13.32V503.57
			C1353.07,496.21,1358.61,490.25,1365.45,490.25z"/>
		
			<linearGradient id="SVGID_00000121980348904788283290000016951170384493269682_" gradientUnits="userSpaceOnUse" x1="1528.0098" y1="229.9252" x2="1737.5378" y2="20.3971" gradientTransform="matrix(1 0 0 -1 0 768)">
			<stop  offset="0" style="stop-color:#FF9933"/>
			<stop  offset="1" style="stop-color:#FFDCB9"/>
		</linearGradient>
		<path style="fill:none;stroke:url(#SVGID_00000121980348904788283290000016951170384493269682_);stroke-miterlimit:10;" d="
			M1581.41,490.25h46.85c6.84,0,12.38,5.96,12.38,13.32v161.26c0,7.35,5.54,13.32,12.38,13.32h87.01c6.84,0,12.38,5.96,12.38,13.32
			v34.75c0,7.35-5.54,13.32-12.38,13.32H1581.4c-6.84,0-12.38-5.96-12.38-13.32V503.57
			C1569.03,496.21,1574.57,490.25,1581.41,490.25z"/>
		
			<linearGradient id="SVGID_00000119831931387678893310000007284724904534994857_" gradientUnits="userSpaceOnUse" x1="1773.8928" y1="260.0022" x2="1989.4429" y2="44.452" gradientTransform="matrix(1 0 0 -1 0 768)">
			<stop  offset="0" style="stop-color:#FF9933"/>
			<stop  offset="1" style="stop-color:#FFDCB9"/>
		</linearGradient>
		<path style="fill:none;stroke:url(#SVGID_00000119831931387678893310000007284724904534994857_);stroke-miterlimit:10;" d="
			M1797.21,490.25h167.17c6.84,0,12.38,5.96,12.38,13.32v26.59c0,7.35-5.54,13.32-12.38,13.32h-95.39
			c-6.84,0-12.38,5.96-12.38,13.32v12.98c0,7.35,5.54,13.32,12.38,13.32h86.7c6.84,0,12.38,5.96,12.38,13.32v24.21
			c0,7.35-5.54,13.32-12.38,13.32h-86.7c-6.84,0-12.38,5.96-12.38,13.32v22.51c0,7.35,5.54,13.32,12.38,13.32h98.87
			c6.84,0,12.38,5.96,12.38,13.32v29.82c0,7.35-5.54,13.32-12.38,13.32h-170.64c-6.84,0-12.38-5.96-12.38-13.32V503.57
			C1784.83,496.21,1790.38,490.25,1797.21,490.25z"/>
	</g>
</g>
<g id="Layer_4">
	
		<linearGradient id="SVGID_00000140001664883943549040000016241548769919541659_" gradientUnits="userSpaceOnUse" x1="1307.875" y1="406.8458" x2="1990.125" y2="-774.8458" gradientTransform="matrix(-1 0 0 1 2332 568)">
		<stop  offset="0.1249" style="stop-color:#99FFFF"/>
		<stop  offset="0.3267" style="stop-color:#9DFFFF;stop-opacity:0.7836"/>
		<stop  offset="0.4352" style="stop-color:#A7FFFF;stop-opacity:0.5896"/>
		<stop  offset="0.5515" style="stop-color:#BAFFFF;stop-opacity:0.4041"/>
		<stop  offset="1" style="stop-color:#F4FFFF;stop-opacity:0.0492"/>
	</linearGradient>
	<polygon style="fill:url(#SVGID_00000140001664883943549040000016241548769919541659_);" points="-6,-6 1372,-6 1372,774 -6,774 	
		"/>
</g>
</svg>
