<?xml version="1.0" encoding="utf-8"?>
<!-- Generator: Adobe Illustrator 27.7.0, SVG Export Plug-In . SVG Version: 6.00 Build 0)  -->
<svg width="current" height="current" version="1.1" id="Layer_1" xmlns="http://www.w3.org/2000/svg" xmlns:xlink="http://www.w3.org/1999/xlink" x="0px" y="0px"
	 viewBox="0 0 200 200" style="enable-background:new 0 0 200 200;" xml:space="preserve">
<g>
	<path d="M5.16,99.43V86.77c0.32-10.75,1.28-20.55,2.91-29.44s3.67-16.35,6.17-22.42s5.38-11.2,8.64-15.38s6.69-7.23,10.27-9.15
		S40.44,7.5,44.24,7.5c2.1,0,4.27,0.42,6.55,1.26s4.68,2.18,7.21,4.02s4.97,4.55,7.31,8.12c2.34,3.57,4.26,7.78,5.78,12.62
		c3.15,9.3,5.43,19.03,6.84,29.2s2.11,21.5,2.11,33.93c0.1,25.97-2.26,46.86-7.05,62.68l-2.1,6.91c-1.84,6.15-4.48,11.28-7.91,15.38
		c-3.43,4.1-6.86,6.94-10.29,8.52c-3.43,1.58-6.89,2.37-10.38,2.37c-4.09,0-7.88-1-11.34-3c-3.46-2-6.45-4.68-8.95-8.07
		c-2.5-3.39-4.74-7.46-6.71-12.3c-1.97-4.84-3.57-9.93-4.84-15.32s-2.29-11.22-3.1-17.5s-1.38-12.43-1.72-18.42
		C5.34,111.89,5.16,105.74,5.16,99.43z M43.1,53.81c-1.3,0-2.47,0.74-3.51,2.18c-1.04,1.47-1.87,3.23-2.52,5.31
		c-0.65,2.08-1.22,4.86-1.69,8.36c-0.47,3.5-0.83,6.65-1.06,9.44c-0.23,2.81-0.39,6.33-0.52,10.59c-0.13,4.26-0.19,7.57-0.21,9.91
		s-0.02,5.36-0.02,9.04c0,3.52,0.05,6.89,0.16,10.09c0.11,3.21,0.36,6.57,0.71,10.14c0.36,3.57,0.84,6.68,1.43,9.33
		c0.58,2.65,1.4,4.89,2.44,6.68c1.04,1.81,2.21,2.79,3.54,2.94c1.4,0,2.63-0.55,3.72-1.68c1.09-1.13,1.98-2.52,2.71-4.26
		s1.35-4.05,1.85-6.96c0.5-2.92,0.89-5.73,1.17-8.41c0.28-2.68,0.47-6.02,0.62-10.01c0.15-3.99,0.23-7.44,0.26-10.3
		c0.03-2.86,0.05-6.52,0.05-10.88c0-3.23-0.03-6.23-0.11-8.99c-0.08-2.76-0.21-5.83-0.41-9.23c-0.19-3.39-0.5-6.36-0.96-8.94
		c-0.44-2.58-0.99-4.99-1.62-7.25s-1.46-4.02-2.5-5.23C45.62,54.44,44.44,53.81,43.1,53.81z"/>
	<path d="M99.52,189.06c-0.89,0-1.92,0.05-3.1,0.18c-1.17,0.11-2.08,0.21-2.71,0.29s-1.36,0.05-2.16-0.05
		c-0.81-0.11-1.41-0.39-1.84-0.81c-0.41-0.42-0.84-1.05-1.32-1.89c-0.45-0.84-0.8-2-1.01-3.47c-0.21-1.47-0.37-3.26-0.52-5.41
		s-0.21-4.73-0.21-7.73c0-16.58,0.13-39.24,0.37-67.91c0.26-28.7,0.37-49.75,0.37-63.18c0-16.58,0.36-25.34,1.06-26.26h17.73
		c3.15,0,5.49,0.45,7.04,1.31c1.54,0.89,2.57,2.21,3.07,3.97c0.5,1.76,0.76,4.44,0.76,8.07c0,1.08-0.03,3.18-0.1,6.28
		s-0.1,5.7-0.1,7.78v5.31c0,2.47-0.05,6.15-0.15,11.06c-0.1,4.91-0.15,8.59-0.15,11.06v2.31c0.06,0.47,0.1,1.08,0.1,1.84h1.9
		c0.54,0,1.36,0.03,2.47,0.11c1.1,0.08,1.93,0.11,2.47,0.11c1.46,0,2.53-0.24,3.23-0.68V23.4c0-3.84,0.08-6.6,0.24-8.23
		c0.16-1.66,0.37-2.68,0.67-3.1c0.29-0.42,0.81-0.63,1.58-0.63c0.41,0,1.07,0.03,2,0.11c0.93,0.08,1.59,0.11,2,0.11l3.53-0.34
		c2.39-0.24,4.52-0.34,6.39-0.34c8.64,0,12.97,2.31,12.97,6.91c0,1.24,0.02,3,0.05,5.31c0.03,2.31,0.05,4.07,0.05,5.31
		c0,2.68-0.02,6.6-0.05,11.75c-0.03,5.15-0.05,9.07-0.05,11.75c0,7.99,0.05,19.9,0.15,35.72s0.15,27.73,0.15,35.72
		c0,0.68-0.02,1.55-0.05,2.6c-0.03,1.03-0.05,1.71-0.05,2.02v5.52c0,4.91,0.03,8.59,0.1,11.06v2.52c-0.07,0.32-0.1,0.76-0.1,1.39
		c0,4.07,0.03,10.25,0.1,18.56c0.07,8.31,0.1,14.48,0.1,18.56c-0.23,2.76-3.27,4.15-9.15,4.15h-19.82l-1.43-4.84v-7.6
		c0-5.15,0.02-12.75,0.05-22.81c0.03-10.07,0.05-17.66,0.05-22.81c0-1.76-0.08-2.97-0.26-3.63c-0.18-0.66-0.54-0.97-1.07-0.97h-1.72
		c-2.16,0-4.13,0.32-5.91,0.92c0,6.39-0.03,15.95-0.1,28.75c-0.06,12.8-0.1,22.42-0.1,28.86c-0.37,2.31-4.35,3.47-11.91,3.47h-5.59
		V189.06z"/>
	<path d="M165.48,17.64c0-2.6,2.7-3.92,8.11-3.92h5.72c4.7-0.92,8.45-1.39,11.24-1.39c2.86,0,4.29,1.52,4.29,4.6l-3.43,104.94
		c-0.03,0.76-0.21,1.45-0.52,2.02c-0.32,0.58-0.75,1-1.32,1.26c-0.55,0.26-1.14,0.47-1.74,0.58c-0.6,0.11-1.28,0.18-2.05,0.18
		c-0.41,0-1.04-0.03-1.85-0.11c-0.83-0.08-1.45-0.11-1.85-0.11c-0.86,0-2.11,0.08-3.77,0.24c-1.66,0.16-2.91,0.24-3.77,0.24h-4.09
		c-0.36-0.32-0.67-0.76-0.93-1.39c-0.28-0.6-0.49-1.39-0.65-2.37c-0.16-0.97-0.29-1.89-0.37-2.76c-0.1-0.89-0.16-2.02-0.2-3.39
		c-0.03-1.39-0.05-2.52-0.06-3.39c-0.02-0.89-0.02-2.05-0.02-3.52L165.48,17.64z M166.94,186.09l-0.42-17.5
		c0-6.07,0.16-11.51,0.47-16.29c0.31-4.78,0.73-7.2,1.23-7.2h9.34c3.3,0,5.95,0.08,7.91,0.24c1.97,0.16,3.48,0.39,4.5,0.74
		c1.04,0.34,1.71,0.74,2,1.21c0.31,0.47,0.45,1.1,0.45,1.97v36.4c-0.07,0.76-0.5,1.42-1.32,1.97s-1.88,0.97-3.23,1.26
		c-1.35,0.29-2.78,0.55-4.26,0.74s-3.12,0.29-4.89,0.29s-3.28,0-4.55,0s-2.55-0.03-3.83-0.05c-1.28-0.03-2.03-0.05-2.21-0.05v-1.84
		c-0.1-0.24-0.31-0.53-0.65-0.92C167.15,186.64,166.97,186.3,166.94,186.09z"/>
</g>
</svg>
