<?xml version="1.0" encoding="utf-8"?>
<!-- Generator: Adobe Illustrator 27.7.0, SVG Export Plug-In . SVG Version: 6.00 Build 0)  -->
<svg version="1.1" id="Layer_1" xmlns="http://www.w3.org/2000/svg" xmlns:xlink="http://www.w3.org/1999/xlink" x="0px" y="0px"
	 viewBox="0 0 400 200" style="enable-background:new 0 0 400 200;" xml:space="preserve">
<style type="text/css">
	.st0{fill:none;}
</style>
<g>
	<path class="st0" d="M230.92,106.68c0.36,2.77,0.93,5.84,1.71,9.21l4.61,20.45l1.56,2.4l1.6-0.64c1.29-0.51,2.41-1.16,3.36-1.95
		c0.95-0.79,1.3-1.58,1.03-2.37l-13.99-31.42C230.52,102.47,230.56,103.91,230.92,106.68z"/>
	<path class="st0" d="M37.52,138.1c-0.48-1.63-0.92-3.06-1.31-4.27c-0.46-1.42-1.04-3.21-1.76-5.37c-0.53-1.59-1.04-3.05-1.53-4.4
		c-0.49-1.35-1.06-2.83-1.72-4.46c-0.65-1.62-1.3-3.03-1.95-4.2c-0.65-1.18-1.32-2.26-2.01-3.25c-0.69-0.99-1.4-1.68-2.13-2.07
		c-0.73-0.4-1.43-0.46-2.1-0.19c-0.66,0.26-1.13,0.86-1.42,1.79c-0.29,0.93-0.42,1.97-0.41,3.12c0.01,1.15,0.18,2.64,0.51,4.45
		c0.33,1.82,0.67,3.44,1.01,4.86c0.35,1.43,0.84,3.2,1.47,5.32c0.63,2.12,1.14,3.76,1.51,4.92c0.38,1.16,0.87,2.64,1.47,4.46
		c0,0.01,0.01,0.02,0.01,0.03l6.06,1.97L37.52,138.1z"/>
	<path class="st0" d="M30.92,148.59c0.77,1.68,1.52,3.12,2.25,4.3c0.73,1.19,1.51,2.12,2.33,2.8c0.82,0.68,1.58,0.92,2.28,0.73
		c0.71-0.28,1.25-0.81,1.61-1.57c0.37-0.77,0.59-1.65,0.68-2.65c0.09-1,0.02-2.27-0.2-3.81c-0.22-1.54-0.48-3-0.78-4.38
		c-0.3-1.38-0.75-3.06-1.33-5.06c-0.08-0.29-0.17-0.58-0.25-0.85l-4.28,2.71l-6.06-1.97c0.57,1.73,1.15,3.36,1.72,4.9
		C29.47,145.29,30.15,146.9,30.92,148.59z"/>
	<path class="st0" d="M291.91,106.16c-3.05-9.28-5.36-16.28-6.93-21c-0.06-0.17-0.14-0.4-0.22-0.66l-10.88,20.39l8.1,24.76
		l0.53-0.21c1.24-0.66,2.12-1.09,2.64-1.28c0.52-0.19,1.49-0.49,2.92-0.9c1.42-0.42,2.77-0.88,4.05-1.39
		c1.05-0.42,1.87-0.59,2.48-0.5c0.6,0.08,1.05,0.56,1.34,1.43l4.87,14.64l2.1-2.08l-4.05-12.19
		C297.27,122.43,294.95,115.43,291.91,106.16z"/>
	<path d="M37.36,137.17c0.58,1.99,1.02,3.68,1.33,5.06c0.3,1.38,0.56,2.84,0.78,4.38c0.22,1.54,0.29,2.81,0.2,3.81
		c-0.09,1-0.31,1.88-0.68,2.65c-0.37,0.77-0.9,1.29-1.61,1.57c-0.7,0.19-1.46-0.05-2.28-0.73c-0.82-0.68-1.6-1.61-2.33-2.8
		c-0.73-1.19-1.48-2.62-2.25-4.3c-0.77-1.68-1.44-3.3-2.02-4.85c-0.57-1.54-1.15-3.17-1.72-4.9l-11.1-3.6l-3.68-25.91l18.26-9.45
		l-6.9-13.23c-1.54-0.37-2.94-0.54-4.2-0.5c-1.29,0.04-2.47,0.28-3.53,0.7c-1.94,0.77-3.65,1.99-5.15,3.66
		c-1.5,1.67-2.74,3.86-3.71,6.58c-0.98,2.72-1.6,5.83-1.87,9.32c-0.27,3.49-0.09,7.58,0.54,12.28c0.63,4.69,1.74,9.72,3.34,15.08
		l2.08,6.24c1.03,3.1,2.12,6.09,3.27,8.97s2.45,5.79,3.89,8.73c1.44,2.94,2.92,5.6,4.44,7.99c1.52,2.39,3.17,4.58,4.96,6.56
		c1.79,1.98,3.6,3.55,5.43,4.71c1.83,1.16,3.78,1.88,5.87,2.16c2.08,0.28,4.17,0.01,6.25-0.82c1.77-0.71,3.4-1.79,4.89-3.26
		c1.48-1.47,2.76-3.56,3.83-6.28c1.07-2.72,1.57-5.77,1.5-9.17L55.08,154c-0.13-7.3-1.71-16-4.72-26.08l-13.26,8.39
		C37.19,136.59,37.27,136.87,37.36,137.17z"/>
	<path d="M44.22,105c-2.38-4.72-5.14-9.06-8.25-12.99c-1.57-2.07-3.23-3.75-5.01-5.04c-1.77-1.29-3.45-2.13-5.04-2.52
		c-0.04-0.01-0.08-0.02-0.12-0.03l6.9,13.23l-18.26,9.45l3.68,25.91l11.1,3.6c0-0.01-0.01-0.02-0.01-0.03
		c-0.6-1.81-1.09-3.3-1.47-4.46c-0.38-1.16-0.88-2.8-1.51-4.92c-0.63-2.12-1.12-3.9-1.47-5.32c-0.35-1.42-0.68-3.04-1.01-4.86
		c-0.33-1.82-0.5-3.3-0.51-4.45c-0.01-1.15,0.13-2.19,0.41-3.12c0.29-0.93,0.76-1.52,1.42-1.79c0.68-0.27,1.38-0.21,2.1,0.19
		c0.73,0.4,1.43,1.09,2.13,2.07c0.69,0.99,1.36,2.07,2.01,3.25c0.65,1.18,1.3,2.58,1.95,4.2c0.65,1.63,1.22,3.11,1.72,4.46
		c0.49,1.35,1,2.81,1.53,4.4c0.72,2.15,1.3,3.94,1.76,5.37c0.39,1.22,0.82,2.64,1.31,4.27l13.26-8.39c-0.6-2.01-1.25-4.07-1.97-6.2
		C48.81,115.15,46.6,109.73,44.22,105z"/>
	<path d="M81.32,80.32c-0.44-1.32-1.07-3.25-1.9-5.79c-0.83-2.54-1.46-4.47-1.9-5.79c-0.2-0.6-0.5-1.47-0.89-2.6
		c-0.39-1.13-0.69-1.99-0.89-2.6c-0.75-2.27-3.33-2.53-7.71-0.78c-0.95,0.38-2.01,0.87-3.18,1.46L63.1,65.1
		c-0.21,0.08-0.55,0.2-1.03,0.35c-0.48,0.15-0.83,0.26-1.03,0.35c-0.39,0.15-0.62,0.36-0.69,0.63c-0.08,0.27-0.02,0.82,0.17,1.67
		c0.19,0.85,0.6,2.21,1.23,4.1l7.85,23.59c-0.28,0.37-0.79,0.7-1.53,1c-0.27,0.11-0.7,0.26-1.28,0.44c-0.58,0.19-1,0.33-1.28,0.44
		l-0.97,0.39c-0.13-0.38-0.24-0.67-0.35-0.89l-0.38-1.13c-0.4-1.21-0.98-3.03-1.74-5.47c-0.76-2.44-1.34-4.26-1.74-5.47l-0.87-2.61
		c-0.34-1.02-0.75-2.3-1.23-3.85c-0.48-1.54-0.8-2.58-0.98-3.11c-0.59-1.78-1.16-3.05-1.71-3.82c-0.55-0.77-1.28-1.21-2.21-1.34
		c-0.93-0.12-2.19,0.13-3.78,0.77l-9,3.58c-0.2,0.59,1.05,4.98,3.77,13.14c2.2,6.62,5.59,17.01,10.16,31.18
		c0.3,0.92,0.59,1.83,0.88,2.73l14.65-9.27l13.89,9.1l4.3-20.9c-0.31-0.91-0.63-1.85-0.96-2.82C84.6,90.11,82.63,84.26,81.32,80.32z
		"/>
	<path d="M70.41,116.52l-14.65,9.27c4.16,12.89,7.51,23.15,10.05,30.78c0.49,1.47,0.95,2.73,1.37,3.76
		c0.42,1.03,0.81,1.88,1.15,2.56c0.34,0.68,0.7,1.18,1.07,1.5c0.37,0.32,0.7,0.55,0.98,0.67c0.28,0.12,0.63,0.13,1.06,0.03
		c0.43-0.11,0.8-0.24,1.11-0.41c0.31-0.17,0.75-0.4,1.33-0.69c0.58-0.29,1.09-0.53,1.54-0.71l2.85-1.14
		c3.84-1.53,5.67-2.9,5.48-4.11c-1.06-3.18-2.62-7.92-4.68-14.23c-2.06-6.31-3.61-11.03-4.66-14.17c0.8-0.66,1.75-1.21,2.85-1.65
		l0.87-0.35c0.27-0.11,0.51-0.02,0.7,0.27c0.2,0.29,0.44,0.86,0.73,1.73c0.84,2.53,2.08,6.28,3.71,11.24
		c1.63,4.96,2.87,8.71,3.71,11.24l1.25,3.74l1.52,2.09l10.06-4.01c2.98-1.19,4.31-2.48,3.97-3.89c-0.67-2-1.7-5.04-3.09-9.11
		c-1.39-4.07-2.42-7.11-3.09-9.11c-0.1-0.3-0.16-0.54-0.18-0.7l-0.42-1.25c-0.44-1.2-1.05-3.01-1.86-5.42l-0.91-2.72
		c-0.05-0.15-0.15-0.49-0.31-1c-0.15-0.52-0.29-0.95-0.4-1.29c-1.14-3.44-2.8-8.35-4.96-14.73l-4.3,20.9L70.41,116.52z"/>
	<path d="M127.66,146.94c1.19-0.59,2.12-1.18,2.77-1.77c0.66-0.59,0.95-1.17,0.87-1.71l-6.28-25.07c-0.15-0.58-0.4-0.99-0.76-1.22
		c-0.36-0.23-1.04-0.33-2.06-0.28c-0.46,0.02-1.02,0.09-1.65,0.19l0.52,15.41l-12.36,18.93c0.26,0.13,0.44,0.25,0.54,0.35l0.32,1.27
		c0.18-0.05,0.86-0.25,2.06-0.57c1.19-0.33,2.38-0.67,3.55-1.02c1.17-0.35,2.57-0.77,4.2-1.26c1.63-0.49,3.11-1.01,4.46-1.55
		C125.2,148.09,126.46,147.53,127.66,146.94z"/>
	<path d="M98.44,30.91c-2.58,0.77-5.96,2.13-10.15,4.06l-5.28,1.58c-4.99,1.49-7.25,3.14-6.8,4.94l10.9,37.14l2.1-36l11.19,35.2
		l13.73,8.72l-10.94-53.66C102.66,30.78,101.08,30.12,98.44,30.91z"/>
	<path d="M118.93,117.97c-0.76,0.12-1.63,0.3-2.63,0.54c-1.85,0.44-4.29,1.12-7.34,2.03l-8.62,2.58c-0.47,0.14-0.44,1.91,0.1,5.3
		c0.53,3.39,1.33,7.18,2.37,11.36l3.42,11.94c0.07,0.15,0.29,0.31,0.66,0.48c0.08,0.04,0.14,0.07,0.21,0.1l12.36-18.93
		L118.93,117.97z"/>
	<path d="M89.62,48.45l-2.1,36l7.42,25.27c0.25,1.01,0.46,1.81,0.63,2.41c0.17,0.6,0.38,1.38,0.65,2.32
		c0.27,0.94,0.52,1.71,0.76,2.29c0.24,0.58,0.52,1.18,0.83,1.8c0.31,0.62,0.65,1.1,1,1.45c0.35,0.35,0.72,0.58,1.1,0.7l3.78-1.13
		c0.79-0.24,1.94-0.64,3.44-1.2c1.5-0.56,2.64-0.96,3.44-1.2c0.38-0.11,0.96-0.26,1.74-0.43c0.78-0.18,1.35-0.32,1.74-0.43
		c0.7-0.21,1.32-0.44,1.86-0.69c0.54-0.25,1.04-0.54,1.51-0.88c0.47-0.34,0.8-0.75,0.99-1.24c0.19-0.48,0.24-1,0.14-1.53
		l-3.99-19.57l-13.73-8.72L89.62,48.45z"/>
	<path d="M180.05,167.43c-0.45-4.76-1.49-10.04-3.1-15.82c-0.51-1.38-1.06-2.02-1.63-1.92l-13.16,5.24
		c-0.05,0.57,0.07,1.57,0.33,2.98c0.27,1.41,0.54,2.75,0.8,4.02c0.27,1.27,0.38,2.46,0.33,3.59c-0.04,1.13-0.36,1.81-0.94,2.04
		c-2.22,0.58-4.89-3.83-8.02-13.25c-0.25-0.76-0.56-1.74-0.93-2.97c-0.37-1.22-0.63-2.06-0.78-2.51c-0.26-0.84-0.68-2.16-1.26-3.96
		c-0.58-1.8-1.04-3.25-1.37-4.33c-0.33-1.09-0.73-2.43-1.18-4.03c-0.45-1.6-0.75-2.92-0.91-3.97c-0.16-1.05-0.27-2.11-0.33-3.18
		c-0.06-1.07,0.05-1.91,0.33-2.54c0.28-0.63,0.72-1.06,1.3-1.29c0.58-0.23,1.17-0.01,1.77,0.68c0.6,0.68,1.15,1.59,1.64,2.72
		c0.49,1.13,0.97,2.27,1.44,3.41c0.46,1.14,0.94,2.08,1.43,2.8c0.49,0.73,0.94,1.01,1.36,0.84c0.08-0.03,0.2-0.1,0.34-0.2
		c0.15-0.1,0.26-0.17,0.34-0.2c0.47-0.19,1.46-0.54,2.98-1.06c1.52-0.52,2.69-0.94,3.53-1.28c3.55-1.41,5.12-2.72,4.72-3.93
		l-1.81-5.44c-1.6-4.16-3.33-7.8-5.18-10.94c-1.85-3.14-3.84-5.78-5.98-7.93c-2.14-2.14-4.45-3.55-6.92-4.21
		c-2.48-0.66-5.01-0.48-7.61,0.56c-1.61,0.64-3.12,1.64-4.51,2.99c-1.4,1.35-2.66,3.26-3.79,5.75c-1.13,2.48-1.91,5.34-2.35,8.58
		c-0.44,3.24-0.39,7.24,0.14,12.02c0.53,4.78,1.63,9.96,3.31,15.54l0.56,1.68l6.97-2.88l17.16,29.5l18.85,10.9
		c0.79-1.69,1.4-3.61,1.82-5.79C180.41,176.26,180.51,172.2,180.05,167.43z"/>
	<path d="M141.1,145.45l-6.97,2.88l1.1,3.31c1.04,3.14,2.11,6.13,3.19,8.97c1.08,2.84,2.35,5.87,3.81,9.08
		c1.46,3.21,2.94,6.11,4.44,8.7c1.5,2.59,3.17,5.03,5.01,7.32c1.84,2.29,3.69,4.11,5.54,5.47c1.86,1.36,3.88,2.24,6.05,2.63
		c2.18,0.4,4.36,0.16,6.56-0.72c2.35-0.94,4.29-2.5,5.82-4.69c0.54-0.77,1.02-1.63,1.45-2.55l-18.85-10.9L141.1,145.45z"/>
	<path d="M202.8,134.55l-20.84-4.31c0,0-6.57-20.2-11.17-35.01l-6.7,2.67c-0.2,0.59,1.05,4.98,3.77,13.14
		c2.2,6.62,5.59,17.01,10.16,31.18c4.57,14.17,8.21,25.34,10.93,33.51c0.49,1.47,0.95,2.73,1.37,3.76c0.42,1.03,0.81,1.88,1.15,2.56
		c0.34,0.68,0.7,1.18,1.07,1.5c0.37,0.32,0.7,0.55,0.98,0.67c0.28,0.12,0.63,0.13,1.06,0.03c0.43-0.11,0.8-0.24,1.11-0.41
		c0.31-0.17,0.75-0.4,1.33-0.69c0.58-0.29,1.09-0.53,1.54-0.71l2.85-1.14c3.84-1.53,5.67-2.9,5.48-4.11
		c-1.06-3.18-2.62-7.92-4.68-14.23c-2.06-6.31-3.61-11.03-4.66-14.17c0.8-0.66,1.75-1.21,2.85-1.65l0.87-0.35
		c0.27-0.11,0.51-0.02,0.7,0.27c0.2,0.29,0.44,0.86,0.73,1.73c0.84,2.53,2.08,6.28,3.71,11.24c1.63,4.96,2.87,8.71,3.71,11.24
		l1.25,3.74l1.52,2.09l10.06-4.01c2.98-1.19,4.31-2.48,3.97-3.89c-0.67-2-1.7-5.04-3.09-9.11c-0.12-0.34-0.23-0.67-0.34-1
		l-5.59,6.02L202.8,134.55z"/>
	<path d="M220.59,147.6l-0.42-1.25c-0.43-1.2-1.05-3.01-1.86-5.42l-0.91-2.72c-0.05-0.15-0.15-0.49-0.31-1s-0.29-0.95-0.4-1.29
		c-1.31-3.93-3.28-9.78-5.92-17.55c-2.64-7.77-4.61-13.62-5.92-17.55c-0.44-1.32-1.07-3.25-1.9-5.79c-0.83-2.54-1.46-4.47-1.9-5.79
		c-0.2-0.6-0.5-1.47-0.89-2.6c-0.39-1.13-0.69-1.99-0.89-2.6c-0.75-2.27-3.33-2.53-7.71-0.78c-0.95,0.38-2.01,0.87-3.18,1.46
		l-1.73,0.88c-0.21,0.08-0.55,0.2-1.03,0.35c-0.48,0.15-0.83,0.26-1.03,0.35c-0.39,0.15-0.62,0.36-0.69,0.63
		c-0.08,0.27-0.02,0.82,0.17,1.67c0.19,0.85,0.6,2.21,1.23,4.1l7.85,23.59c-0.28,0.37-0.79,0.7-1.53,1
		c-0.27,0.11-0.7,0.26-1.28,0.44c-0.58,0.19-1,0.33-1.28,0.44l-0.97,0.39c-0.13-0.38-0.24-0.67-0.35-0.89l-0.38-1.13
		c-0.4-1.21-0.98-3.03-1.74-5.47c-0.76-2.44-1.34-4.26-1.74-5.47l-0.87-2.61c-0.34-1.02-0.75-2.3-1.23-3.85
		c-0.48-1.54-0.8-2.58-0.98-3.11c-0.59-1.78-1.16-3.05-1.71-3.82c-0.55-0.77-1.28-1.21-2.21-1.34c-0.93-0.12-2.19,0.13-3.78,0.77
		l-2.3,0.92c4.6,14.81,11.17,35.01,11.17,35.01l20.84,4.31l15.12,30.57l5.59-6.02c-1.22-3.57-2.14-6.28-2.75-8.12
		C220.67,148,220.61,147.77,220.59,147.6z"/>
	<path d="M231.03,74.48c-0.2-0.26-0.39-0.44-0.58-0.54c-0.19-0.1-0.41-0.14-0.66-0.12c-0.25,0.01-0.46,0.04-0.63,0.09
		c-0.17,0.05-0.37,0.12-0.61,0.21l-4.06,1.62c-0.22,0.09-0.46,0.19-0.73,0.3l10.72,25.17l11.21,2.98L231.54,75.5
		C231.4,75.08,231.23,74.74,231.03,74.48z"/>
	<path d="M229.45,177c0.67,0.93,1.13,1.52,1.36,1.77c0.31-0.12,0.73-0.31,1.28-0.57c0.54-0.26,0.94-0.44,1.2-0.54l0.68-0.27
		c0.69-0.28,1.71-0.74,3.04-1.4c1.33-0.66,2.35-1.13,3.04-1.4l1.94-0.77c1.63-0.65,2.38-1.46,2.26-2.44l-2.74-12.52l8.32-3.31
		c0.45-0.18,1.14,0.44,2.07,1.87c0.93,1.43,1.79,3.05,2.58,4.88l1.25,3.74c0.26,0.5,0.59,0.85,0.99,1.05
		c0.4,0.2,0.87,0.25,1.39,0.15c0.52-0.1,0.99-0.22,1.4-0.36c0.41-0.14,0.9-0.36,1.47-0.65c0.57-0.29,0.95-0.48,1.14-0.55
		c0.65-0.26,1.6-0.66,2.86-1.2c1.26-0.55,2.21-0.95,2.86-1.2l2.23-0.89c0.65-0.26,1.04-0.57,1.18-0.95c0.14-0.38,0.08-0.94-0.17-1.7
		l-13.68-27.71l-30.42,32.74C227.79,168.87,228.61,172.95,229.45,177z"/>
	<path d="M224.18,80.95c-0.89,0.37-2.04,0.87-3.45,1.49c-1.83,0.81-3.22,1.41-4.17,1.79l-4.06,1.62c-0.01,0.18,0.01,0.68,0.07,1.52
		c0.92,5.03,2.55,14.11,4.89,27.24c2.33,13.14,4.38,24.41,6.14,33.81c0.97,5.2,1.97,10.35,2.98,15.44l30.42-32.74l-10.88-22.03
		l-11.21-2.98L224.18,80.95z M240.91,134.81c-0.95,0.79-2.07,1.44-3.36,1.95l-1.6,0.64l-1.56-2.4l-4.61-20.45
		c-0.78-3.37-1.34-6.44-1.71-9.21c-0.36-2.77-0.4-4.21-0.11-4.32l13.99,31.42C242.2,133.23,241.86,134.02,240.91,134.81z"/>
	<path d="M291.72,121.78c-0.6-0.08-1.43,0.09-2.48,0.5c-1.27,0.51-2.62,0.97-4.05,1.39c-1.42,0.42-2.4,0.72-2.92,0.9
		c-0.52,0.19-1.4,0.61-2.64,1.28l-0.53,0.21l-8.1-24.76l-5.69,10.66l-8.51-2.26c0.53,1.6,1.08,3.29,1.66,5.06
		c3.05,9.28,5.36,16.28,6.93,21l5.36,16.11c0.97,2.91,1.87,4.95,2.69,6.12l6.83-2.72l17.64-17.42l-4.87-14.64
		C292.77,122.34,292.32,121.86,291.72,121.78z"/>
	<path d="M268.96,99.07l-11.08-33.88c-0.57-1.1-1.63-1.59-3.18-1.46c-1.56,0.13-3.48,0.65-5.77,1.56c-0.6,0.24-1.45,0.62-2.57,1.15
		c-1.12,0.53-1.93,0.9-2.43,1.1l-0.77,0.31c-0.29,0.12-0.53,0.17-0.72,0.16c-0.31,0.94,0.56,4.49,2.61,10.65
		c0.59,1.78,1.41,4.15,2.45,7.12c1.04,2.97,1.71,4.89,2,5.76c1.27,3.83,3.03,9.14,5.27,15.95l8.51,2.26L268.96,99.07z"/>
	<path d="M293.05,154.9c6.98-2.78,10.35-4.89,10.11-6.34l-2.37-7.14l-17.64,17.42L293.05,154.9z"/>
	<path d="M327.72,110.14c-0.29-0.87-0.74-1.34-1.34-1.43c-0.6-0.08-1.43,0.09-2.48,0.5c-1.27,0.51-2.62,0.97-4.05,1.39
		c-1.42,0.42-2.4,0.72-2.92,0.9c-0.52,0.19-1.4,0.61-2.64,1.28l-0.53,0.21l-19.18-58.64c-0.57-1.1-1.63-1.59-3.18-1.46
		c-1.29,0.11-2.84,0.49-4.63,1.13l4.29,16.47l-5.09,9.53c0.09,0.26,0.17,0.49,0.22,0.66c1.57,4.73,3.88,11.73,6.93,21
		c3.05,9.28,5.36,16.28,6.93,21l4.05,12.19l9.83-9.7l11.83,12.7c6.35-2.6,9.42-4.59,9.19-5.96L327.72,110.14z"/>
	<path d="M284.73,53.13c-0.37,0.13-0.75,0.27-1.14,0.43c-0.6,0.24-1.45,0.62-2.57,1.15c-1.12,0.53-1.93,0.9-2.43,1.1l-0.77,0.31
		c-0.29,0.12-0.53,0.17-0.72,0.16c-0.31,0.94,0.56,4.49,2.61,10.65c0.59,1.78,1.41,4.15,2.45,7.12c0.83,2.37,1.42,4.06,1.77,5.09
		l5.09-9.53L284.73,53.13z"/>
	<path d="M304.12,137.11l1.3,3.92c0.97,2.91,1.87,4.95,2.69,6.12l16.74-6.67c0.32-0.13,0.62-0.25,0.92-0.37l-11.83-12.7
		L304.12,137.11z"/>
	<path d="M321.71,56.05c-0.44-1.21-1.97-9.29-3.28-16.41L308,43.79l7.81,23.48c0.62,1.85,1.32,3.97,2.1,6.34
		C319.66,67.35,322.26,57.55,321.71,56.05z"/>
	<path d="M363.71,107.9c-1.21-3.54-2.12-6.22-2.73-8.03l-1.43-4.31c-0.51-0.99-1.3-1.28-2.37-0.86c-1.35,0.54-3.34,1.5-5.96,2.89
		c-2.62,1.39-4.64,2.36-6.08,2.93l-2.72-8.17l0.63-0.25c2.45-0.98,6.12-2.78,11.02-5.42c0.11,0.13,0.22,0.17,0.32,0.13
		c0.21-0.08,0.21-0.51,0.01-1.29c-0.6-1.81-1.52-4.49-2.75-8.02c-1.23-3.53-2.15-6.21-2.75-8.02c-0.06-0.19-0.16-0.49-0.28-0.92
		c-0.12-0.42-0.21-0.73-0.28-0.92c-0.23-0.68-0.47-1.14-0.73-1.38c-0.26-0.24-0.63-0.26-1.12-0.07l-11.51,4.58
		c-0.3-0.91-0.59-1.85-0.87-2.83c-0.28-0.98-0.59-2.12-0.94-3.41c-0.35-1.3-0.61-2.25-0.78-2.87c3.54-1.06,7.39-2.43,11.57-4.09
		l0.68-0.27c0.19-0.08,0.36-0.19,0.49-0.35c0.13-0.16,0.22-0.31,0.28-0.47c0.06-0.15,0.08-0.38,0.06-0.7
		c-0.02-0.31-0.04-0.55-0.05-0.72c-0.01-0.17-0.07-0.45-0.19-0.86c-0.12-0.4-0.2-0.68-0.25-0.83c-0.05-0.15-0.15-0.45-0.3-0.91
		s-0.25-0.74-0.28-0.85l-6.19-18.6l-17.72,7.06c1.3,7.12,2.83,15.2,3.28,16.41c0.55,1.5-2.04,11.3-3.8,17.56
		c1.94,5.88,4.38,13.32,7.33,22.34c4.14,12.65,7.28,22.21,9.43,28.68l0.72,2.16c0.1,0.3,0.36,0.97,0.78,2l1.28,1.55
		c1.92-0.81,5-2.21,9.23-4.22c4.23-2,7.5-3.47,9.82-4.39c0.9-0.36,2.23-0.87,3.99-1.52c1.75-0.66,3.05-1.15,3.89-1.48
		c0.65-0.26,0.65-1.33,0.02-3.22C365.83,114.12,364.92,111.44,363.71,107.9z"/>
	<path d="M355.62,58.68l24.88,11.17L367.95,8.31c-0.53-2.11-2.11-2.78-4.76-1.99c-1.77,0.53-3.93,1.34-6.46,2.42
		c6.23,9.09,15.78,22.27,15.78,22.27L355.62,58.68z"/>
	<path d="M388.97,95.59c-0.15-0.58-0.4-0.99-0.76-1.22c-0.36-0.23-1.04-0.33-2.06-0.28c-1.01,0.05-2.44,0.29-4.29,0.73
		c-1.85,0.44-4.29,1.12-7.34,2.03l-8.62,2.58c-0.47,0.14-0.44,1.91,0.1,5.3c0.53,3.39,1.33,7.18,2.37,11.36l3.42,11.94
		c0.07,0.15,0.29,0.31,0.66,0.48c0.37,0.17,0.63,0.32,0.75,0.46l0.32,1.27c0.18-0.05,0.86-0.25,2.06-0.57
		c1.19-0.33,2.38-0.67,3.55-1.02c1.17-0.35,2.57-0.77,4.2-1.26c1.63-0.49,3.11-1.01,4.46-1.55c1.35-0.55,2.61-1.11,3.81-1.7
		c1.19-0.59,2.12-1.18,2.77-1.77c0.66-0.59,0.95-1.17,0.87-1.71L388.97,95.59z"/>
	<path d="M371.48,91.53c1.5-0.56,2.64-0.96,3.44-1.2c0.38-0.11,0.96-0.26,1.74-0.43c0.78-0.18,1.35-0.32,1.74-0.43
		c0.7-0.21,1.32-0.44,1.86-0.69c0.54-0.25,1.04-0.54,1.51-0.88c0.47-0.34,0.8-0.75,0.99-1.24c0.19-0.48,0.24-1,0.14-1.53
		l-2.38-11.69l-24.88-11.17l16.89-27.67c0,0-9.55-13.18-15.78-22.27c-1.15,0.49-2.38,1.04-3.69,1.64l-5.28,1.58
		c-4.99,1.49-7.25,3.14-6.8,4.94l18.32,62.41c0.25,1.01,0.46,1.81,0.63,2.41c0.17,0.6,0.38,1.38,0.65,2.32
		c0.27,0.94,0.52,1.71,0.76,2.29c0.24,0.58,0.52,1.18,0.83,1.8c0.31,0.62,0.65,1.1,1,1.45c0.35,0.35,0.72,0.58,1.1,0.7l3.78-1.13
		C368.83,92.49,369.98,92.09,371.48,91.53z"/>
</g>
</svg>
