<?xml version="1.0" encoding="utf-8"?>
<!-- Generator: Adobe Illustrator 27.7.0, SVG Export Plug-In . SVG Version: 6.00 Build 0)  -->
<svg version="1.1" id="Layer_1" xmlns="http://www.w3.org/2000/svg" xmlns:xlink="http://www.w3.org/1999/xlink" x="0px" y="0px"
	 viewBox="0 0 400 100" style="enable-background:new 0 0 400 100;" xml:space="preserve">
<g>
	<path d="M2.45,36.98v-4.82c0.2-4.09,0.79-7.82,1.79-11.2s2.26-6.22,3.8-8.53s3.31-4.26,5.32-5.85s4.12-2.75,6.32-3.48
		S24.16,2,26.5,2c1.29,0,2.63,0.16,4.03,0.48s2.88,0.83,4.44,1.53c1.56,0.7,3.06,1.73,4.5,3.09c1.44,1.36,2.62,2.96,3.56,4.8
		c1.94,3.54,3.34,7.24,4.21,11.11s1.3,8.18,1.3,12.91c0.06,9.88-1.39,17.83-4.34,23.85l-1.29,2.63c-1.13,2.34-2.76,4.29-4.87,5.85
		c-2.11,1.56-4.22,2.64-6.33,3.24c-2.11,0.6-4.24,0.9-6.39,0.9c-2.52,0-4.85-0.38-6.98-1.14c-2.13-0.76-3.97-1.78-5.51-3.07
		S9.91,65.34,8.7,63.5c-1.21-1.84-2.2-3.78-2.98-5.83s-1.41-4.27-1.91-6.66s-0.85-4.73-1.06-7.01C2.56,41.72,2.45,39.38,2.45,36.98z
		 M25.8,19.62c-0.8,0-1.52,0.28-2.16,0.83c-0.64,0.56-1.15,1.23-1.55,2.02s-0.75,1.85-1.04,3.18c-0.29,1.33-0.51,2.53-0.65,3.59
		c-0.14,1.07-0.24,2.41-0.32,4.03c-0.08,1.62-0.12,2.88-0.13,3.77c-0.01,0.89-0.01,2.04-0.01,3.44c0,1.34,0.03,2.62,0.1,3.84
		s0.22,2.5,0.44,3.86c0.22,1.36,0.52,2.54,0.88,3.55c0.36,1.01,0.86,1.86,1.5,2.54c0.64,0.69,1.36,1.06,2.18,1.12
		c0.86,0,1.62-0.21,2.29-0.64s1.22-0.96,1.67-1.62s0.83-1.54,1.14-2.65c0.31-1.11,0.55-2.18,0.72-3.2s0.29-2.29,0.38-3.81
		s0.14-2.83,0.16-3.92s0.03-2.48,0.03-4.14c0-1.23-0.02-2.37-0.07-3.42s-0.13-2.22-0.25-3.51s-0.31-2.42-0.59-3.4
		c-0.27-0.98-0.61-1.9-1-2.76s-0.9-1.53-1.54-1.99C27.35,19.86,26.62,19.62,25.8,19.62z"/>
	<path d="M60.52,71.08c-0.55,0-1.18,0.02-1.91,0.07c-0.72,0.04-1.28,0.08-1.67,0.11c-0.39,0.03-0.84,0.02-1.33-0.02
		c-0.5-0.04-0.87-0.15-1.13-0.31c-0.25-0.16-0.52-0.4-0.81-0.72c-0.28-0.32-0.49-0.76-0.62-1.32c-0.13-0.56-0.23-1.24-0.32-2.06
		c-0.09-0.82-0.13-1.8-0.13-2.94c0-6.31,0.08-14.93,0.23-25.84c0.16-10.92,0.23-18.93,0.23-24.04c0-6.31,0.22-9.64,0.65-9.99h10.91
		c1.94,0,3.38,0.17,4.33,0.5c0.95,0.34,1.58,0.84,1.89,1.51s0.47,1.69,0.47,3.07c0,0.41-0.02,1.21-0.06,2.39s-0.06,2.17-0.06,2.96
		v2.02c0,0.94-0.03,2.34-0.09,4.21c-0.06,1.87-0.09,3.27-0.09,4.21v0.88c0.04,0.18,0.06,0.41,0.06,0.7h1.17
		c0.33,0,0.84,0.01,1.52,0.04c0.68,0.03,1.19,0.04,1.52,0.04c0.9,0,1.56-0.09,1.99-0.26V8.05c0-1.46,0.05-2.51,0.15-3.13
		c0.1-0.63,0.23-1.02,0.41-1.18c0.18-0.16,0.5-0.24,0.97-0.24c0.25,0,0.66,0.01,1.23,0.04c0.57,0.03,0.98,0.04,1.23,0.04l2.17-0.13
		c1.47-0.09,2.78-0.13,3.93-0.13c5.32,0,7.98,0.88,7.98,2.63c0,0.47,0.01,1.14,0.03,2.02s0.03,1.55,0.03,2.02
		c0,1.02-0.01,2.51-0.03,4.47s-0.03,3.45-0.03,4.47c0,3.04,0.03,7.57,0.09,13.59c0.06,6.02,0.09,10.55,0.09,13.59
		c0,0.26-0.01,0.59-0.03,0.99c-0.02,0.39-0.03,0.65-0.03,0.77v2.1c0,1.87,0.02,3.27,0.06,4.21v0.96c-0.04,0.12-0.06,0.29-0.06,0.53
		c0,1.55,0.02,3.9,0.06,7.06c0.04,3.16,0.06,5.51,0.06,7.06c-0.14,1.05-2.01,1.58-5.63,1.58h-12.2l-0.88-1.84v-2.89
		c0-1.96,0.01-4.85,0.03-8.68c0.02-3.83,0.03-6.72,0.03-8.68c0-0.67-0.05-1.13-0.16-1.38s-0.33-0.37-0.66-0.37h-1.06
		c-1.33,0-2.54,0.12-3.64,0.35c0,2.43-0.02,6.07-0.06,10.94s-0.06,8.53-0.06,10.98c-0.23,0.88-2.68,1.32-7.33,1.32H60.52z"/>
	<path d="M101.11,5.86c0-0.99,1.66-1.49,4.99-1.49h3.52c2.89-0.35,5.2-0.53,6.92-0.53c1.76,0,2.64,0.58,2.64,1.75l-2.11,39.93
		c-0.02,0.29-0.13,0.55-0.32,0.77c-0.2,0.22-0.46,0.38-0.81,0.48c-0.34,0.1-0.7,0.18-1.07,0.22c-0.37,0.04-0.79,0.07-1.26,0.07
		c-0.25,0-0.64-0.01-1.14-0.04c-0.51-0.03-0.89-0.04-1.14-0.04c-0.53,0-1.3,0.03-2.32,0.09c-1.02,0.06-1.79,0.09-2.32,0.09h-2.52
		c-0.22-0.12-0.41-0.29-0.57-0.53c-0.17-0.23-0.3-0.53-0.4-0.9c-0.1-0.37-0.18-0.72-0.23-1.05c-0.06-0.34-0.1-0.77-0.12-1.29
		c-0.02-0.53-0.03-0.96-0.04-1.29c-0.01-0.34-0.01-0.78-0.01-1.34L101.11,5.86z M102.01,69.95l-0.26-6.66c0-2.31,0.1-4.38,0.29-6.2
		s0.45-2.74,0.76-2.74h5.75c2.03,0,3.66,0.03,4.87,0.09c1.21,0.06,2.14,0.15,2.77,0.28c0.64,0.13,1.05,0.28,1.23,0.46
		c0.19,0.18,0.28,0.42,0.28,0.75v13.85c-0.04,0.29-0.31,0.54-0.81,0.75s-1.16,0.37-1.99,0.48s-1.71,0.21-2.62,0.28
		s-1.92,0.11-3.01,0.11s-2.02,0-2.8,0s-1.57-0.01-2.36-0.02c-0.79-0.01-1.25-0.02-1.36-0.02v-0.7c-0.06-0.09-0.19-0.2-0.4-0.35
		S102.03,70.03,102.01,69.95z"/>
	<path d="M166.5,71.7c-0.33,4.38-1.1,8.26-2.32,11.64c-1.21,3.38-2.77,6.12-4.66,8.24s-4.05,3.72-6.47,4.8s-5.05,1.62-7.9,1.62
		c-2.66,0-5.08-0.43-7.27-1.29c-2.19-0.86-4.04-2.01-5.54-3.44s-2.83-3.18-3.99-5.24c-1.15-2.06-2.07-4.18-2.76-6.36
		s-1.24-4.56-1.66-7.15c-0.42-2.59-0.7-5-0.85-7.23c-0.15-2.24-0.22-4.57-0.22-6.99v-3.86c0.2-4.27,0.86-8.1,1.99-11.51
		c1.13-3.4,2.51-6.15,4.13-8.24c1.62-2.09,3.48-3.83,5.57-5.22c2.09-1.39,4.13-2.35,6.1-2.89c1.97-0.54,3.94-0.81,5.89-0.81
		c3.15,0,5.93,0.56,8.34,1.69c2.41,1.13,4.38,2.71,5.91,4.76c1.52,2.05,2.72,4.39,3.58,7.04s1.41,5.6,1.64,8.88v4.21
		c0,0.94-2.15,1.4-6.45,1.4c-1.02,0-2.43-0.03-4.24-0.09c-1.81-0.06-3-0.09-3.56-0.09c-0.1,0-0.24,0.01-0.44,0.04
		c-0.2,0.03-0.34,0.04-0.44,0.04c-0.51,0-0.89-0.31-1.16-0.94s-0.44-1.4-0.53-2.3c-0.09-0.91-0.2-1.81-0.32-2.72
		c-0.13-0.91-0.39-1.67-0.79-2.3c-0.4-0.63-0.95-0.94-1.66-0.94s-1.32,0.18-1.85,0.53c-0.53,0.35-0.95,0.9-1.26,1.64
		s-0.57,1.5-0.78,2.26c-0.21,0.76-0.35,1.75-0.44,2.96c-0.09,1.21-0.15,2.24-0.18,3.07s-0.05,1.94-0.07,3.33
		c-0.02,1.39-0.04,2.4-0.06,3.05c0,0.35-0.02,0.99-0.06,1.93c-0.04,0.94-0.06,1.69-0.06,2.28c0,7.28,1.29,11.02,3.87,11.22
		c0.7,0,1.28-0.38,1.73-1.14c0.45-0.76,0.76-1.61,0.92-2.54c0.17-0.94,0.36-1.92,0.57-2.96c0.22-1.04,0.45-1.75,0.7-2.13h15.95
		C166.09,70.03,166.44,70.62,166.5,71.7z"/>
	<path d="M177.88,96.33c-0.55,0-1.18,0.02-1.91,0.07c-0.72,0.04-1.28,0.08-1.67,0.11c-0.39,0.03-0.84,0.02-1.33-0.02
		s-0.87-0.15-1.13-0.31c-0.25-0.16-0.52-0.4-0.81-0.72c-0.28-0.32-0.49-0.76-0.62-1.32s-0.23-1.24-0.32-2.06
		c-0.09-0.82-0.13-1.8-0.13-2.94c0-6.31,0.08-14.93,0.23-25.84s0.23-18.93,0.23-24.04c0-6.31,0.22-9.64,0.65-9.99h10.91
		c1.94,0,3.38,0.17,4.33,0.5c0.95,0.34,1.58,0.84,1.89,1.51s0.47,1.69,0.47,3.07c0,0.41-0.02,1.21-0.06,2.39
		c-0.04,1.18-0.06,2.17-0.06,2.96v2.02c0,0.94-0.03,2.34-0.09,4.21s-0.09,3.27-0.09,4.21v0.88c0.04,0.18,0.06,0.41,0.06,0.7h1.17
		c0.33,0,0.84,0.01,1.52,0.04c0.68,0.03,1.19,0.04,1.52,0.04c0.9,0,1.56-0.09,1.99-0.26V33.3c0-1.46,0.05-2.51,0.15-3.13
		c0.1-0.63,0.23-1.02,0.41-1.18c0.18-0.16,0.5-0.24,0.97-0.24c0.25,0,0.66,0.01,1.23,0.04s0.98,0.04,1.23,0.04l2.17-0.13
		c1.47-0.09,2.78-0.13,3.93-0.13c5.32,0,7.98,0.88,7.98,2.63c0,0.47,0.01,1.14,0.03,2.02c0.02,0.88,0.03,1.55,0.03,2.02
		c0,1.02-0.01,2.51-0.03,4.47c-0.02,1.96-0.03,3.45-0.03,4.47c0,3.04,0.03,7.57,0.09,13.59c0.06,6.02,0.09,10.55,0.09,13.59
		c0,0.26-0.01,0.59-0.03,0.99c-0.02,0.39-0.03,0.65-0.03,0.77v2.1c0,1.87,0.02,3.27,0.06,4.21v0.96c-0.04,0.12-0.06,0.29-0.06,0.53
		c0,1.55,0.02,3.9,0.06,7.06c0.04,3.16,0.06,5.51,0.06,7.06c-0.14,1.05-2.01,1.58-5.63,1.58h-12.2l-0.88-1.84v-2.89
		c0-1.96,0.01-4.85,0.03-8.68c0.02-3.83,0.03-6.72,0.03-8.68c0-0.67-0.05-1.13-0.16-1.38c-0.11-0.25-0.33-0.37-0.66-0.37h-1.06
		c-1.33,0-2.54,0.12-3.64,0.35c0,2.43-0.02,6.07-0.06,10.94c-0.04,4.87-0.06,8.53-0.06,10.98c-0.23,0.88-2.68,1.32-7.33,1.32H177.88
		z"/>
	<path d="M214.42,95.19c1.21-6.69,2.55-13.49,4.02-20.38c1.47-6.9,3.29-15.15,5.47-24.75c2.18-9.6,3.67-16.24,4.47-19.92
		c0.23-0.58,0.39-0.94,0.47-1.05h4.93c1.15,0,2.85-0.03,5.1-0.09c2.25-0.06,3.95-0.09,5.1-0.09h4.93c0.29,0,0.54,0.01,0.73,0.02
		c0.2,0.01,0.43,0.05,0.7,0.11c0.27,0.06,0.49,0.15,0.66,0.26c0.17,0.12,0.31,0.29,0.43,0.53c0.12,0.23,0.18,0.51,0.18,0.83
		l13.52,64.04c0,0.58-0.14,0.99-0.43,1.21s-0.82,0.33-1.6,0.33h-2.7c-0.78,0-1.95,0.01-3.49,0.04c-1.54,0.03-2.71,0.04-3.49,0.04
		c-0.23,0-0.71,0.02-1.42,0.07c-0.71,0.04-1.31,0.06-1.8,0.04c-0.49-0.01-1.03-0.06-1.63-0.13s-1.08-0.23-1.44-0.48
		c-0.36-0.25-0.59-0.58-0.69-0.99v-2.89c-0.2-1.46-0.54-2.81-1.03-4.03c-0.49-1.23-1.01-1.84-1.55-1.84h-10.09l-1.52,9.29
		c-0.22,0.7-1.31,1.05-3.28,1.05h-2.35c-0.84,0-2.09,0.04-3.75,0.13c-1.66,0.09-2.91,0.13-3.75,0.13h-0.82
		c-0.31,0-0.81,0.01-1.48,0.04s-1.2,0.04-1.57,0.04C215.08,96.54,214.81,96.01,214.42,95.19z M234.77,68.59l0.82,2.06h1.94
		c1.56,0,3-0.14,4.3-0.42c1.3-0.28,1.95-0.72,1.95-1.34l-3.78-25.25c-0.35,0-0.83,0.99-1.42,2.98c-0.6,1.99-1.08,4.24-1.45,6.75
		L234.77,68.59z"/>
	<path d="M266.85,36.63c0-4.76,0.33-7.42,1-7.98c0.2,0.06,0.47,0.09,0.82,0.09h0.94c0.61,0,1.6-0.03,2.99-0.09
		c1.39-0.06,2.44-0.09,3.17-0.09c2.78,0,5.02,0.17,6.73,0.5s2.67,0.96,2.89,1.86l-0.35,45.24h0.65c1.56-0.12,2.66-0.17,3.28-0.15
		c0.63,0.01,1.77,0.07,3.45,0.18c1.67,0.1,3.28,0.15,4.82,0.15c1.27,0,2.21,0.11,2.83,0.33s0.92,0.66,0.92,1.34v16.83
		c-0.25,1.05-4.61,1.58-13.08,1.58h-20.29c-0.47-1.02-0.7-2.66-0.7-4.91V79.06c0-3.65,0.02-9.06,0.06-16.22s0.06-12.57,0.06-16.22
		c0-0.67-0.03-2.16-0.09-4.47C266.88,39.84,266.85,38,266.85,36.63z"/>
	<path d="M303.92,36.63c0-4.76,0.33-7.42,1-7.98c0.2,0.06,0.47,0.09,0.82,0.09h0.94c0.61,0,1.6-0.03,2.99-0.09
		c1.39-0.06,2.44-0.09,3.17-0.09c2.78,0,5.02,0.17,6.73,0.5c1.71,0.34,2.67,0.96,2.89,1.86l-0.35,45.24h0.65
		c1.56-0.12,2.66-0.17,3.28-0.15c0.63,0.01,1.77,0.07,3.45,0.18c1.67,0.1,3.28,0.15,4.82,0.15c1.27,0,2.21,0.11,2.83,0.33
		s0.92,0.66,0.92,1.34v16.83c-0.25,1.05-4.61,1.58-13.08,1.58h-20.29c-0.47-1.02-0.7-2.66-0.7-4.91V79.06
		c0-3.65,0.02-9.06,0.06-16.22s0.06-12.57,0.06-16.22c0-0.67-0.03-2.16-0.09-4.47C303.95,39.84,303.92,38,303.92,36.63z"/>
	<path d="M340.7,93.62v-1.67c0-5,0.04-12.38,0.12-22.14c0.08-9.76,0.12-17.14,0.12-22.14V29.53h34.13v14.38c0,0.09,0,0.31,0,0.66
		s0,0.58,0,0.7c0,0.12-0.01,0.33-0.03,0.64c-0.02,0.31-0.05,0.52-0.1,0.64c-0.05,0.12-0.12,0.28-0.21,0.5
		c-0.09,0.22-0.19,0.37-0.31,0.46c-0.12,0.09-0.27,0.17-0.47,0.24s-0.41,0.11-0.65,0.11h-0.82c-5.06,0-9.68-0.12-13.84-0.35
		c-0.04,0.47-0.1,1.19-0.19,2.17c-0.09,0.98-0.16,1.84-0.21,2.59c-0.05,0.75-0.07,1.47-0.07,2.17h13.96c0.59,0,0.98,0.12,1.17,0.35
		c0.2,0.23,0.29,0.61,0.29,1.14c0,0.15-0.01,0.38-0.03,0.7c-0.02,0.32-0.03,0.56-0.03,0.7c0,1.4,0.03,3.48,0.09,6.22
		c0.06,2.75,0.09,4.82,0.09,6.22c-0.06,0.58-0.22,0.88-0.47,0.88c-0.12,0-0.22-0.06-0.29-0.18c-6.18,0.47-10.75,0.7-13.72,0.7h-0.76
		v6.31c1.74,0,4.26-0.12,7.55-0.35c3.29-0.23,5.76-0.35,7.4-0.35c1.29,0,2.03,0.41,2.23,1.23v3.33c0,1.4,0.02,3.48,0.06,6.22
		s0.06,4.82,0.06,6.22c0,1.46-0.39,2.19-1.17,2.19c-1.02,0-2.58-0.01-4.69-0.04c-2.11-0.03-3.71-0.04-4.81-0.04
		c-2.82,0-6.84,0.11-12.08,0.33s-9.03,0.34-11.38,0.37l-0.82-1.4C340.73,94.38,340.7,93.85,340.7,93.62z"/>
	<path d="M378.94,31.11c0-0.99,1.66-1.49,4.99-1.49h3.52c2.89-0.35,5.2-0.53,6.92-0.53c1.76,0,2.64,0.58,2.64,1.75l-2.11,39.93
		c-0.02,0.29-0.13,0.55-0.32,0.77c-0.2,0.22-0.46,0.38-0.81,0.48c-0.34,0.1-0.7,0.18-1.07,0.22c-0.37,0.04-0.79,0.07-1.26,0.07
		c-0.25,0-0.64-0.01-1.14-0.04c-0.51-0.03-0.89-0.04-1.14-0.04c-0.53,0-1.3,0.03-2.32,0.09c-1.02,0.06-1.79,0.09-2.32,0.09h-2.52
		c-0.22-0.12-0.41-0.29-0.57-0.53c-0.17-0.23-0.3-0.53-0.4-0.9c-0.1-0.37-0.18-0.72-0.23-1.05s-0.1-0.77-0.12-1.29
		c-0.02-0.53-0.03-0.96-0.04-1.29c-0.01-0.34-0.01-0.78-0.01-1.34L378.94,31.11z M379.84,95.19l-0.26-6.66c0-2.31,0.1-4.38,0.29-6.2
		s0.45-2.74,0.76-2.74h5.75c2.03,0,3.66,0.03,4.87,0.09c1.21,0.06,2.14,0.15,2.77,0.28c0.64,0.13,1.05,0.28,1.23,0.46
		c0.19,0.18,0.28,0.42,0.28,0.75v13.85c-0.04,0.29-0.31,0.54-0.81,0.75s-1.16,0.37-1.99,0.48c-0.83,0.12-1.71,0.21-2.62,0.28
		s-1.92,0.11-3.01,0.11s-2.02,0-2.8,0s-1.57-0.01-2.36-0.02s-1.25-0.02-1.36-0.02v-0.7c-0.06-0.09-0.19-0.2-0.4-0.35
		C379.98,95.4,379.86,95.28,379.84,95.19z"/>
</g>
</svg>
