<?xml version="1.0" standalone="no"?>
<!DOCTYPE svg PUBLIC "-//W3C//DTD SVG 20010904//EN"
 "http://www.w3.org/TR/2001/REC-SVG-20010904/DTD/svg10.dtd">
<svg version="1.0" xmlns="http://www.w3.org/2000/svg"
 width="920.000000pt" height="920.000000pt" viewBox="0 0 920.000000 920.000000"
 preserveAspectRatio="xMidYMid meet">

<g transform="translate(0.000000,920.000000) scale(0.100000,-0.100000)"
fill="#000000" stroke="none">
<path d="M4505 6885 c-98 -18 -181 -51 -248 -99 -46 -33 -351 -392 -1527
-1803 -809 -970 -1483 -1784 -1499 -1810 -97 -158 -105 -367 -23 -543 27 -59
52 -92 116 -155 49 -48 104 -91 136 -107 212 -104 469 -74 636 75 30 27 604
708 1275 1513 671 805 1224 1464 1229 1464 5 0 558 -658 1229 -1463 671 -805
1243 -1485 1272 -1511 86 -78 178 -118 309 -136 102 -14 224 6 320 53 97 48
217 169 262 267 82 175 74 386 -21 541 -16 26 -690 840 -1499 1810 -1481 1776
-1502 1801 -1608 1855 -38 20 -166 51 -234 58 -30 2 -86 -1 -125 -9z"/>
</g>
</svg>
